<svg version="1.1" xmlns="http://www.w3.org/2000/svg" xmlns:xlink="http://www.w3.org/1999/xlink" width="1229" height="601" viewBox="0 0 1229 601"><defs/><g transform="matrix(1,0,0,1,0,0)"><g><g><g><path fill="none" stroke="#d3d3d3" paint-order="fill stroke markers" d=" M 0 0 L 1200 0" stroke-miterlimit="10" stroke-opacity="0.8" stroke-dasharray="5"/></g><g><path fill="none" stroke="#d3d3d3" paint-order="fill stroke markers" d=" M 0 0 L 0 800" stroke-miterlimit="10" stroke-opacity="0.8" stroke-dasharray="5"/></g></g><g id="_B1482558-0558-43AF-88A3-906D739991BC" bpmn2nodeid="_B1482558-0558-43AF-88A3-906D739991BC" transform="matrix(1,0,0,1,65,4)"><g><path fill="none" stroke="none"/></g><g transform="matrix(1,0,0,1,0,0)"><path fill="#f2f2f2" stroke="black" id="_B1482558-0558-43AF-88A3-906D739991BC?shapeType=BACKGROUND" paint-order="fill stroke markers" d=" M 0 0 L 1114 0 L 1114 274 L 0 274 L 0 0 Z Z" stroke-miterlimit="10" stroke-dasharray=""/></g><g transform="matrix(1,0,0,1,0,0)"><path fill="none" stroke="rgb(0,0,0)" id="_B1482558-0558-43AF-88A3-906D739991BC?shapeType=BORDER&amp;renderType=STROKE" paint-order="fill stroke markers" d=" M 0 0 L 1114 0 L 1114 274 L 0 274 L 0 0 Z Z" stroke-miterlimit="10" stroke-width="0.5" stroke-dasharray=""/></g><g transform="matrix(-1.8369701987210297e-16,-1,1,-1.8369701987210297e-16,0,162.8046875)"><text fill="#000000" stroke="none" font-family="Open Sans" font-size="12pt" font-style="normal" font-weight="normal" text-decoration="normal" x="25.8046875" y="12" text-anchor="middle" dominant-baseline="alphabetic">Cliente</text></g><g id="_8B696E67-EC78-4A7C-8F0D-98485345E5A6" bpmn2nodeid="_8B696E67-EC78-4A7C-8F0D-98485345E5A6" transform="matrix(1,0,0,1,39,109)"><g><path fill="none" stroke="none"/></g><g transform="matrix(0.125,0,0,0.125,0,0)"><g transform="matrix(1,0,0,1,0,0)"><path fill="#e8fae6" stroke="black" id="_8B696E67-EC78-4A7C-8F0D-98485345E5A6?shapeType=BACKGROUND" paint-order="fill stroke markers" d=" M 0 0 M 444 224 C 444 263.9 434.2 300.8 414.4 334.5 C 394.7 368.2 368 394.9 334.4 414.5 C 300.79999999999995 434.1 263.9 444 224 444 C 184.10000000000002 444 147.2 434.2 113.5 414.4 C 79.8 394.7 53.1 368 33.5 334.4 C 13.899999999999999 300.79999999999995 4 263.9 4 224 C 4 184.10000000000002 13.8 147.2 33.6 113.5 C 53.400000000000006 79.80000000000001 80.1 53.1 113.6 33.5 C 147.1 13.899999999999999 184.1 4 224 4 C 263.9 4 300.8 13.8 334.5 33.6 C 368.2 53.400000000000006 394.9 80.1 414.5 113.6 C 434.1 147.1 444 184.1 444 224 Z" stroke-miterlimit="10" stroke-dasharray=""/></g><g><g transform="matrix(1,0,0,1,0,0)"><g transform="matrix(1,0,0,1,0,0)"><path fill="rgb(74,162,65)" stroke="black" id="_8B696E67-EC78-4A7C-8F0D-98485345E5A6?shapeType=BORDER&amp;renderType=FILL" paint-order="fill stroke markers" d=" M 0 0 M 224 0 C 100.3 0 0 100.3 0 224 C 0 347.7 100.3 448 224 448 C 347.7 448 448 347.7 448 224 C 448 100.30000000000001 347.7 0 224 0 Z M 0 0 M 224 432 C 109.1 432 16 338.9 16 224 C 16 109.10000000000002 109.1 16 224 16 C 338.9 16 432 109.1 432 224 C 432 338.9 338.9 432 224 432 Z" stroke-miterlimit="10" stroke-dasharray=""/></g></g></g></g><g transform="matrix(1,0,0,1,28,61)"/></g><g id="_7808A915-624A-40EA-8F7E-5E147BC4B18B" bpmn2nodeid="_7808A915-624A-40EA-8F7E-5E147BC4B18B" transform="matrix(1,0,0,1,145,86)"><g><path fill="none" stroke="none"/></g><g transform="matrix(1,0,0,1,0,0)"><path fill="#ffffff" stroke="none" id="_7808A915-624A-40EA-8F7E-5E147BC4B18B?shapeType=BACKGROUND" paint-order="stroke fill markers" d=" M 2 0 L 152 0 L 152 0 A 2 2 0 0 1 154 2 L 154 100 L 154 100 A 2 2 0 0 1 152 102 L 2 102 L 2 102 A 2 2 0 0 1 0 100 L 0 2 L 0 2.0000000000000004 A 2 2 0 0 1 1.9999999999999996 0 Z"/></g><g transform="matrix(1,0,0,1,0,0)"><path fill="none" stroke="rgb(0,0,0)" id="_7808A915-624A-40EA-8F7E-5E147BC4B18B?shapeType=BORDER&amp;renderType=STROKE" paint-order="fill stroke markers" d=" M 2 0 L 152 0 L 152 0 A 2 2 0 0 1 154 2 L 154 100 L 154 100 A 2 2 0 0 1 152 102 L 2 102 L 2 102 A 2 2 0 0 1 0 100 L 0 2 L 0 2.0000000000000004 A 2 2 0 0 1 1.9999999999999996 0 Z" stroke-miterlimit="10" stroke-width="1.5" stroke-dasharray=""/></g><g transform="matrix(1,0,0,1,6.16015625,28.5)"><text fill="#000000" stroke="none" font-family="Open Sans" font-size="12pt" font-style="normal" font-weight="normal" text-decoration="normal" x="70.83984375" y="12" text-anchor="middle" dominant-baseline="alphabetic">Entregar factura al </text><text fill="#000000" stroke="none" font-family="Open Sans" font-size="12pt" font-style="normal" font-weight="normal" text-decoration="normal" x="70.83984375" y="27" text-anchor="middle" dominant-baseline="alphabetic">    encargado de      </text><text fill="#000000" stroke="none" font-family="Open Sans" font-size="12pt" font-style="normal" font-weight="normal" text-decoration="normal" x="70.83984375" y="42" text-anchor="middle" dominant-baseline="alphabetic">        empaque         </text></g></g></g><g id="_D6F4566C-C9C2-472C-A38E-0F3A96CA143E" bpmn2nodeid="_D6F4566C-C9C2-472C-A38E-0F3A96CA143E" transform="matrix(1,0,0,1,65,277)"><g><path fill="none" stroke="none"/></g><g transform="matrix(1,0,0,1,0,0)"><path fill="#f2f2f2" stroke="black" id="_D6F4566C-C9C2-472C-A38E-0F3A96CA143E?shapeType=BACKGROUND" paint-order="fill stroke markers" d=" M 0 0 L 1114 0 L 1114 274 L 0 274 L 0 0 Z Z" stroke-miterlimit="10" stroke-dasharray=""/></g><g transform="matrix(1,0,0,1,0,0)"><path fill="none" stroke="rgb(0,0,0)" id="_D6F4566C-C9C2-472C-A38E-0F3A96CA143E?shapeType=BORDER&amp;renderType=STROKE" paint-order="fill stroke markers" d=" M 0 0 L 1114 0 L 1114 274 L 0 274 L 0 0 Z Z" stroke-miterlimit="10" stroke-width="0.5" stroke-dasharray=""/></g><g transform="matrix(-1.8369701987210297e-16,-1,1,-1.8369701987210297e-16,0,225.4609375)"><text fill="#000000" stroke="none" font-family="Open Sans" font-size="12pt" font-style="normal" font-weight="normal" text-decoration="normal" x="88.4609375" y="12" text-anchor="middle" dominant-baseline="alphabetic">Encargado de Empaque</text></g><g id="_2D7C6116-9B53-41C0-B35D-3BAF997B610D" bpmn2nodeid="_2D7C6116-9B53-41C0-B35D-3BAF997B610D" transform="matrix(1,0,0,1,145,86)"><g><path fill="none" stroke="none"/></g><g transform="matrix(1,0,0,1,0,0)"><path fill="#ffffff" stroke="none" id="_2D7C6116-9B53-41C0-B35D-3BAF997B610D?shapeType=BACKGROUND" paint-order="stroke fill markers" d=" M 2 0 L 152 0 L 152 0 A 2 2 0 0 1 154 2 L 154 100 L 154 100 A 2 2 0 0 1 152 102 L 2 102 L 2 102 A 2 2 0 0 1 0 100 L 0 2 L 0 2.0000000000000004 A 2 2 0 0 1 1.9999999999999996 0 Z"/></g><g transform="matrix(1,0,0,1,0,0)"><path fill="none" stroke="rgb(0,0,0)" id="_2D7C6116-9B53-41C0-B35D-3BAF997B610D?shapeType=BORDER&amp;renderType=STROKE" paint-order="fill stroke markers" d=" M 2 0 L 152 0 L 152 0 A 2 2 0 0 1 154 2 L 154 100 L 154 100 A 2 2 0 0 1 152 102 L 2 102 L 2 102 A 2 2 0 0 1 0 100 L 0 2 L 0 2.0000000000000004 A 2 2 0 0 1 1.9999999999999996 0 Z" stroke-miterlimit="10" stroke-width="1.5" stroke-dasharray=""/></g><g transform="matrix(1,0,0,1,9.8671875,36)"><text fill="#000000" stroke="none" font-family="Open Sans" font-size="12pt" font-style="normal" font-weight="normal" text-decoration="normal" x="67.1328125" y="12" text-anchor="middle" dominant-baseline="alphabetic">Recibir pedido de </text><text fill="#000000" stroke="none" font-family="Open Sans" font-size="12pt" font-style="normal" font-weight="normal" text-decoration="normal" x="67.1328125" y="27" text-anchor="middle" dominant-baseline="alphabetic">       empaque        </text></g></g><g id="_4A0D2CC8-F9DE-4CD3-82CA-74C860CFFB56" bpmn2nodeid="_4A0D2CC8-F9DE-4CD3-82CA-74C860CFFB56" transform="matrix(1,0,0,1,354,86)"><g><path fill="none" stroke="none"/></g><g transform="matrix(1,0,0,1,0,0)"><path fill="#ffffff" stroke="none" id="_4A0D2CC8-F9DE-4CD3-82CA-74C860CFFB56?shapeType=BACKGROUND" paint-order="stroke fill markers" d=" M 2 0 L 152 0 L 152 0 A 2 2 0 0 1 154 2 L 154 100 L 154 100 A 2 2 0 0 1 152 102 L 2 102 L 2 102 A 2 2 0 0 1 0 100 L 0 2 L 0 2.0000000000000004 A 2 2 0 0 1 1.9999999999999996 0 Z"/></g><g transform="matrix(1,0,0,1,0,0)"><path fill="none" stroke="rgb(0,0,0)" id="_4A0D2CC8-F9DE-4CD3-82CA-74C860CFFB56?shapeType=BORDER&amp;renderType=STROKE" paint-order="fill stroke markers" d=" M 2 0 L 152 0 L 152 0 A 2 2 0 0 1 154 2 L 154 100 L 154 100 A 2 2 0 0 1 152 102 L 2 102 L 2 102 A 2 2 0 0 1 0 100 L 0 2 L 0 2.0000000000000004 A 2 2 0 0 1 1.9999999999999996 0 Z" stroke-miterlimit="10" stroke-width="1.5" stroke-dasharray=""/></g><g transform="matrix(1,0,0,1,7.51953125,36)"><text fill="#000000" stroke="none" font-family="Open Sans" font-size="12pt" font-style="normal" font-weight="normal" text-decoration="normal" x="69.48046875" y="12" text-anchor="middle" dominant-baseline="alphabetic">Controlar pago de </text><text fill="#000000" stroke="none" font-family="Open Sans" font-size="12pt" font-style="normal" font-weight="normal" text-decoration="normal" x="69.48046875" y="27" text-anchor="middle" dominant-baseline="alphabetic">          factura           </text></g></g><g id="_17965B50-E5E2-40C8-B238-C56ED5286383" bpmn2nodeid="_17965B50-E5E2-40C8-B238-C56ED5286383" transform="matrix(1,0,0,1,563,86)"><g><path fill="none" stroke="none"/></g><g transform="matrix(1,0,0,1,0,0)"><path fill="#ffffff" stroke="none" id="_17965B50-E5E2-40C8-B238-C56ED5286383?shapeType=BACKGROUND" paint-order="stroke fill markers" d=" M 2 0 L 152 0 L 152 0 A 2 2 0 0 1 154 2 L 154 100 L 154 100 A 2 2 0 0 1 152 102 L 2 102 L 2 102 A 2 2 0 0 1 0 100 L 0 2 L 0 2.0000000000000004 A 2 2 0 0 1 1.9999999999999996 0 Z"/></g><g transform="matrix(1,0,0,1,0,0)"><path fill="none" stroke="rgb(0,0,0)" id="_17965B50-E5E2-40C8-B238-C56ED5286383?shapeType=BORDER&amp;renderType=STROKE" paint-order="fill stroke markers" d=" M 2 0 L 152 0 L 152 0 A 2 2 0 0 1 154 2 L 154 100 L 154 100 A 2 2 0 0 1 152 102 L 2 102 L 2 102 A 2 2 0 0 1 0 100 L 0 2 L 0 2.0000000000000004 A 2 2 0 0 1 1.9999999999999996 0 Z" stroke-miterlimit="10" stroke-width="1.5" stroke-dasharray=""/></g><g transform="matrix(1,0,0,1,7.5546875,36)"><text fill="#000000" stroke="none" font-family="Open Sans" font-size="12pt" font-style="normal" font-weight="normal" text-decoration="normal" x="69.4453125" y="12" text-anchor="middle" dominant-baseline="alphabetic">Organizar entrega </text><text fill="#000000" stroke="none" font-family="Open Sans" font-size="12pt" font-style="normal" font-weight="normal" text-decoration="normal" x="69.4453125" y="27" text-anchor="middle" dominant-baseline="alphabetic">       del pedido       </text></g></g><g id="_DEAC3775-CD21-411E-A64E-6D073B832CFD" bpmn2nodeid="_DEAC3775-CD21-411E-A64E-6D073B832CFD" transform="matrix(1,0,0,1,772,86)"><g><path fill="none" stroke="none"/></g><g transform="matrix(1,0,0,1,0,0)"><path fill="#ffffff" stroke="none" id="_DEAC3775-CD21-411E-A64E-6D073B832CFD?shapeType=BACKGROUND" paint-order="stroke fill markers" d=" M 2 0 L 152 0 L 152 0 A 2 2 0 0 1 154 2 L 154 100 L 154 100 A 2 2 0 0 1 152 102 L 2 102 L 2 102 A 2 2 0 0 1 0 100 L 0 2 L 0 2.0000000000000004 A 2 2 0 0 1 1.9999999999999996 0 Z"/></g><g transform="matrix(1,0,0,1,0,0)"><path fill="none" stroke="rgb(0,0,0)" id="_DEAC3775-CD21-411E-A64E-6D073B832CFD?shapeType=BORDER&amp;renderType=STROKE" paint-order="fill stroke markers" d=" M 2 0 L 152 0 L 152 0 A 2 2 0 0 1 154 2 L 154 100 L 154 100 A 2 2 0 0 1 152 102 L 2 102 L 2 102 A 2 2 0 0 1 0 100 L 0 2 L 0 2.0000000000000004 A 2 2 0 0 1 1.9999999999999996 0 Z" stroke-miterlimit="10" stroke-width="1.5" stroke-dasharray=""/></g><g transform="matrix(1,0,0,1,8.94921875,43.5)"><text fill="#000000" stroke="none" font-family="Open Sans" font-size="12pt" font-style="normal" font-weight="normal" text-decoration="normal" x="68.05078125" y="12" text-anchor="middle" dominant-baseline="alphabetic">Despachar pedido</text></g></g></g><g id="_7D6E7702-96C2-4C09-ABE8-70655FAFBB22" bpmn2nodeid="_7D6E7702-96C2-4C09-ABE8-70655FAFBB22"><g><path fill="none" stroke="#000000" paint-order="fill stroke markers" d=" M 160 141 L 195 141" stroke-miterlimit="10" stroke-dasharray=""/></g><g transform="matrix(1,0,0,1,160,141)"/><g transform="matrix(6.123233995736766e-17,1,-1,6.123233995736766e-17,210,136)"><path fill="#000000" stroke="#000000" paint-order="fill stroke markers" d=" M 10 15 L 0 15 L 5 0 Z" stroke-miterlimit="10" stroke-dasharray=""/></g><g transform="matrix(1,0,0,1,160,131)"/></g><g transform="matrix(1,0,0,1,65,4)"/><g transform="matrix(1,0,0,1,104,113)"/><g transform="matrix(1,0,0,1,210,90)"/><g id="_7149AE3E-5DB8-4862-9477-4B74652B1A59" bpmn2nodeid="_7149AE3E-5DB8-4862-9477-4B74652B1A59"><g><path fill="none" stroke="#000000" paint-order="fill stroke markers" d=" M 287 192 L 287 348" stroke-miterlimit="10" stroke-dasharray=""/></g><g transform="matrix(1,0,0,1,287,192)"/><g transform="matrix(-1,1.2246467991473532e-16,-1.2246467991473532e-16,-1,292,363)"><path fill="#000000" stroke="#000000" paint-order="fill stroke markers" d=" M 10 15 L 0 15 L 5 0 Z" stroke-miterlimit="10" stroke-dasharray=""/></g><g transform="matrix(1,0,0,1,297,277.5)"/></g><g id="_A812AFBA-DB8C-47E1-826A-031B4519E9D4" bpmn2nodeid="_A812AFBA-DB8C-47E1-826A-031B4519E9D4"><g><path fill="none" stroke="#000000" paint-order="fill stroke markers" d=" M 364 414 L 404 414" stroke-miterlimit="10" stroke-dasharray=""/></g><g transform="matrix(1,0,0,1,364,414)"/><g transform="matrix(6.123233995736766e-17,1,-1,6.123233995736766e-17,419,409)"><path fill="#000000" stroke="#000000" paint-order="fill stroke markers" d=" M 10 15 L 0 15 L 5 0 Z" stroke-miterlimit="10" stroke-dasharray=""/></g><g transform="matrix(1,0,0,1,364,404)"/></g><g id="_1DE86E2A-43B3-4DC2-BA32-A739B3C70614" bpmn2nodeid="_1DE86E2A-43B3-4DC2-BA32-A739B3C70614"><g><path fill="none" stroke="#000000" paint-order="fill stroke markers" d=" M 573 414 L 613 414" stroke-miterlimit="10" stroke-dasharray=""/></g><g transform="matrix(1,0,0,1,573,414)"/><g transform="matrix(6.123233995736766e-17,1,-1,6.123233995736766e-17,628,409)"><path fill="#000000" stroke="#000000" paint-order="fill stroke markers" d=" M 10 15 L 0 15 L 5 0 Z" stroke-miterlimit="10" stroke-dasharray=""/></g><g transform="matrix(1,0,0,1,573,404)"/></g><g id="_CE8F083E-F097-4AB9-AD5E-214E43EF8960" bpmn2nodeid="_CE8F083E-F097-4AB9-AD5E-214E43EF8960"><g><path fill="none" stroke="#000000" paint-order="fill stroke markers" d=" M 782 414 L 822 414" stroke-miterlimit="10" stroke-dasharray=""/></g><g transform="matrix(1,0,0,1,782,414)"/><g transform="matrix(6.123233995736766e-17,1,-1,6.123233995736766e-17,837,409)"><path fill="#000000" stroke="#000000" paint-order="fill stroke markers" d=" M 10 15 L 0 15 L 5 0 Z" stroke-miterlimit="10" stroke-dasharray=""/></g><g transform="matrix(1,0,0,1,782,404)"/></g><g transform="matrix(1,0,0,1,65,277)"/><g transform="matrix(1,0,0,1,210,363)"/><g transform="matrix(1,0,0,1,419,363)"/><g transform="matrix(1,0,0,1,628,363)"/><g transform="matrix(1,0,0,1,837,363)"/><g id="_2F9C27E5-2554-44FD-9019-48B27DAF2BC0" bpmn2nodeid="_2F9C27E5-2554-44FD-9019-48B27DAF2BC0" transform="matrix(1,0,0,1,837,90)"><g><path fill="none" stroke="none"/></g><g transform="matrix(1,0,0,1,0,0)"><path fill="#ffffff" stroke="none" id="_2F9C27E5-2554-44FD-9019-48B27DAF2BC0?shapeType=BACKGROUND" paint-order="stroke fill markers" d=" M 2 0 L 152 0 L 152 0 A 2 2 0 0 1 154 2 L 154 100 L 154 100 A 2 2 0 0 1 152 102 L 2 102 L 2 102 A 2 2 0 0 1 0 100 L 0 2 L 0 2.0000000000000004 A 2 2 0 0 1 1.9999999999999996 0 Z"/></g><g transform="matrix(1,0,0,1,0,0)"><path fill="none" stroke="rgb(0,0,0)" id="_2F9C27E5-2554-44FD-9019-48B27DAF2BC0?shapeType=BORDER&amp;renderType=STROKE" paint-order="fill stroke markers" d=" M 2 0 L 152 0 L 152 0 A 2 2 0 0 1 154 2 L 154 100 L 154 100 A 2 2 0 0 1 152 102 L 2 102 L 2 102 A 2 2 0 0 1 0 100 L 0 2 L 0 2.0000000000000004 A 2 2 0 0 1 1.9999999999999996 0 Z" stroke-miterlimit="10" stroke-width="1.5" stroke-dasharray=""/></g><g transform="matrix(1,0,0,1,11.53125,43.5)"><text fill="#000000" stroke="none" font-family="Open Sans" font-size="12pt" font-style="normal" font-weight="normal" text-decoration="normal" x="65.46875" y="12" text-anchor="middle" dominant-baseline="alphabetic">Recibir productos</text></g></g><g id="_2F9C27E5-2554-44FD-9019-48B27DAF2BC0" bpmn2nodeid="_2F9C27E5-2554-44FD-9019-48B27DAF2BC0" transform="matrix(1,0,0,1,837,90)"><g><path fill="none" stroke="none"/></g><g transform="matrix(1,0,0,1,0,0)"><path fill="#ffffff" stroke="none" id="_2F9C27E5-2554-44FD-9019-48B27DAF2BC0?shapeType=BACKGROUND" paint-order="stroke fill markers" d=" M 2 0 L 152 0 L 152 0 A 2 2 0 0 1 154 2 L 154 100 L 154 100 A 2 2 0 0 1 152 102 L 2 102 L 2 102 A 2 2 0 0 1 0 100 L 0 2 L 0 2.0000000000000004 A 2 2 0 0 1 1.9999999999999996 0 Z"/></g><g transform="matrix(1,0,0,1,0,0)"><path fill="none" stroke="rgb(0,0,0)" id="_2F9C27E5-2554-44FD-9019-48B27DAF2BC0?shapeType=BORDER&amp;renderType=STROKE" paint-order="fill stroke markers" d=" M 2 0 L 152 0 L 152 0 A 2 2 0 0 1 154 2 L 154 100 L 154 100 A 2 2 0 0 1 152 102 L 2 102 L 2 102 A 2 2 0 0 1 0 100 L 0 2 L 0 2.0000000000000004 A 2 2 0 0 1 1.9999999999999996 0 Z" stroke-miterlimit="10" stroke-width="1.5" stroke-dasharray=""/></g><g transform="matrix(1,0,0,1,11.53125,43.5)"><text fill="#000000" stroke="none" font-family="Open Sans" font-size="12pt" font-style="normal" font-weight="normal" text-decoration="normal" x="65.46875" y="12" text-anchor="middle" dominant-baseline="alphabetic">Recibir productos</text></g></g><g id="_B86421AD-A249-4ECB-A4DC-97D0C11590E9" bpmn2nodeid="_B86421AD-A249-4ECB-A4DC-97D0C11590E9"><g><path fill="none" stroke="#000000" paint-order="fill stroke markers" d=" M 914 363 L 914 207" stroke-miterlimit="10" stroke-dasharray=""/></g><g transform="matrix(1,0,0,1,914,363)"/><g transform="matrix(1,0,0,1,909,192)"><path fill="#000000" stroke="#000000" paint-order="fill stroke markers" d=" M 10 15 L 0 15 L 5 0 Z" stroke-miterlimit="10" stroke-dasharray=""/></g><g transform="matrix(1,0,0,1,924,277.5)"/></g><g transform="matrix(1,0,0,1,837,90)"/><g id="_7FF9AC9B-A0C0-4974-9FAD-3F1DBE6296E2" bpmn2nodeid="_7FF9AC9B-A0C0-4974-9FAD-3F1DBE6296E2" transform="matrix(1,0,0,1,1071,113)"><g><path fill="none" stroke="none"/></g><g transform="matrix(0.125,0,0,0.125,0,0)"><g transform="matrix(1,0,0,1,0,0)"><path fill="#fce7e7" stroke="black" id="_7FF9AC9B-A0C0-4974-9FAD-3F1DBE6296E2?shapeType=BACKGROUND" paint-order="fill stroke markers" d=" M 0 0 M 444 224 C 444 263.9 434.2 300.8 414.4 334.5 C 394.7 368.2 368 394.9 334.4 414.5 C 300.79999999999995 434.1 263.9 444 224 444 C 184.10000000000002 444 147.2 434.2 113.5 414.4 C 79.8 394.7 53.1 368 33.5 334.4 C 13.899999999999999 300.79999999999995 4 263.9 4 224 C 4 184.10000000000002 13.8 147.2 33.6 113.5 C 53.400000000000006 79.80000000000001 80.1 53.1 113.6 33.5 C 147.1 13.899999999999999 184.1 4 224 4 C 263.9 4 300.8 13.8 334.5 33.6 C 368.2 53.400000000000006 394.9 80.1 414.5 113.6 C 434.1 147.1 444 184.1 444 224 Z" stroke-miterlimit="10" stroke-dasharray=""/></g><g><g transform="matrix(1,0,0,1,0,0)"><g transform="matrix(1,0,0,1,0,0)"><path fill="rgb(163,0,0)" stroke="black" id="_7FF9AC9B-A0C0-4974-9FAD-3F1DBE6296E2?shapeType=BORDER&amp;renderType=FILL" paint-order="fill stroke markers" d=" M 0 0 M 224 0 C 100.3 0 0 100.3 0 224 C 0 347.7 100.3 448 224 448 C 347.7 448 448 347.7 448 224 C 448 100.30000000000001 347.7 0 224 0 Z M 0 0 M 224 400 C 126.8 400 48 321.2 48 224 C 48 126.80000000000001 126.8 48 224 48 C 321.2 48 400 126.8 400 224 C 400 321.2 321.2 400 224 400 Z" stroke-miterlimit="10" stroke-dasharray=""/></g></g></g></g><g transform="matrix(1,0,0,1,28,61)"/></g><g transform="matrix(1,0,0,1,1071,113)"/><g id="_3B275BFA-8215-4397-8808-10CC9CF6AB8E" bpmn2nodeid="_3B275BFA-8215-4397-8808-10CC9CF6AB8E"><g><path fill="none" stroke="#000000" paint-order="fill stroke markers" d=" M 991 141 L 1056 141" stroke-miterlimit="10" stroke-dasharray=""/></g><g transform="matrix(1,0,0,1,991,141)"/><g transform="matrix(6.123233995736766e-17,1,-1,6.123233995736766e-17,1071,136)"><path fill="#000000" stroke="#000000" paint-order="fill stroke markers" d=" M 10 15 L 0 15 L 5 0 Z" stroke-miterlimit="10" stroke-dasharray=""/></g><g transform="matrix(1,0,0,1,991,131)"/></g></g></g></svg>