<svg version="1.1" xmlns="http://www.w3.org/2000/svg" xmlns:xlink="http://www.w3.org/1999/xlink" width="1434" height="547" viewBox="0 0 1434 547"><defs/><g transform="matrix(1,0,0,1,0,0)"><g><g><g><path fill="none" stroke="#d3d3d3" paint-order="fill stroke markers" d=" M 0 0 L 1200 0" stroke-miterlimit="10" stroke-opacity="0.8" stroke-dasharray="5"/></g><g><path fill="none" stroke="#d3d3d3" paint-order="fill stroke markers" d=" M 0 0 L 0 800" stroke-miterlimit="10" stroke-opacity="0.8" stroke-dasharray="5"/></g></g><g id="_9C406950-37C3-4D82-8FFD-FCA5AA36811A" bpmn2nodeid="_9C406950-37C3-4D82-8FFD-FCA5AA36811A" transform="matrix(1,0,0,1,103,4)"><g><path fill="none" stroke="none"/></g><g transform="matrix(1,0,0,1,0,0)"><path fill="#f2f2f2" stroke="black" id="_9C406950-37C3-4D82-8FFD-FCA5AA36811A?shapeType=BACKGROUND" paint-order="fill stroke markers" d=" M 0 0 L 1281 0 L 1281 248 L 0 248 L 0 0 Z Z" stroke-miterlimit="10" stroke-dasharray=""/></g><g transform="matrix(1,0,0,1,0,0)"><path fill="none" stroke="rgb(0,136,206)" id="_9C406950-37C3-4D82-8FFD-FCA5AA36811A?shapeType=BORDER&amp;renderType=STROKE" paint-order="fill stroke markers" d=" M 0 0 L 1281 0 L 1281 248 L 0 248 L 0 0 Z Z" stroke-miterlimit="10" stroke-width="0.5" stroke-dasharray=""/></g><g transform="matrix(-1.8369701987210297e-16,-1,1,-1.8369701987210297e-16,0,147.9453125)"><text fill="#000000" stroke="none" font-family="Open Sans" font-size="12pt" font-style="normal" font-weight="normal" text-decoration="normal" x="23.9453125" y="12" text-anchor="middle" dominant-baseline="alphabetic">Cajero</text></g><g id="_9B1251C7-F02B-4119-A990-205E5F558962" bpmn2nodeid="_9B1251C7-F02B-4119-A990-205E5F558962" transform="matrix(1,0,0,1,30,97)"><g><path fill="none" stroke="none"/></g><g transform="matrix(0.125,0,0,0.125,0,0)"><g transform="matrix(1,0,0,1,0,0)"><path fill="#e8fae6" stroke="black" id="_9B1251C7-F02B-4119-A990-205E5F558962?shapeType=BACKGROUND" paint-order="fill stroke markers" d=" M 0 0 M 444 224 C 444 263.9 434.2 300.8 414.4 334.5 C 394.7 368.2 368 394.9 334.4 414.5 C 300.79999999999995 434.1 263.9 444 224 444 C 184.10000000000002 444 147.2 434.2 113.5 414.4 C 79.8 394.7 53.1 368 33.5 334.4 C 13.899999999999999 300.79999999999995 4 263.9 4 224 C 4 184.10000000000002 13.8 147.2 33.6 113.5 C 53.400000000000006 79.80000000000001 80.1 53.1 113.6 33.5 C 147.1 13.899999999999999 184.1 4 224 4 C 263.9 4 300.8 13.8 334.5 33.6 C 368.2 53.400000000000006 394.9 80.1 414.5 113.6 C 434.1 147.1 444 184.1 444 224 Z" stroke-miterlimit="10" stroke-dasharray=""/></g><g><g transform="matrix(1,0,0,1,0,0)"><g transform="matrix(1,0,0,1,0,0)"><path fill="#4aa241" stroke="black" id="_9B1251C7-F02B-4119-A990-205E5F558962?shapeType=BORDER&amp;renderType=FILL" paint-order="fill stroke markers" d=" M 0 0 M 224 0 C 100.3 0 0 100.3 0 224 C 0 347.7 100.3 448 224 448 C 347.7 448 448 347.7 448 224 C 448 100.30000000000001 347.7 0 224 0 Z M 0 0 M 224 432 C 109.1 432 16 338.9 16 224 C 16 109.10000000000002 109.1 16 224 16 C 338.9 16 432 109.1 432 224 C 432 338.9 338.9 432 224 432 Z" stroke-miterlimit="10" stroke-dasharray=""/></g></g></g></g><g transform="matrix(1,0,0,1,28,61)"/></g><g id="_0B32C659-9DA5-41EF-90C9-A2E02C9531E5" bpmn2nodeid="_0B32C659-9DA5-41EF-90C9-A2E02C9531E5" transform="matrix(1,0,0,1,136,74)"><g><path fill="none" stroke="none"/></g><g transform="matrix(1,0,0,1,0,0)"><path fill="#ffffff" stroke="none" id="_0B32C659-9DA5-41EF-90C9-A2E02C9531E5?shapeType=BACKGROUND" paint-order="stroke fill markers" d=" M 2 0 L 152 0 L 152 0 A 2 2 0 0 1 154 2 L 154 100 L 154 100 A 2 2 0 0 1 152 102 L 2 102 L 2 102 A 2 2 0 0 1 0 100 L 0 2 L 0 2.0000000000000004 A 2 2 0 0 1 1.9999999999999996 0 Z"/></g><g transform="matrix(1,0,0,1,0,0)"><path fill="none" stroke="rgb(0,0,0)" id="_0B32C659-9DA5-41EF-90C9-A2E02C9531E5?shapeType=BORDER&amp;renderType=STROKE" paint-order="fill stroke markers" d=" M 2 0 L 152 0 L 152 0 A 2 2 0 0 1 154 2 L 154 100 L 154 100 A 2 2 0 0 1 152 102 L 2 102 L 2 102 A 2 2 0 0 1 0 100 L 0 2 L 0 2.0000000000000004 A 2 2 0 0 1 1.9999999999999996 0 Z" stroke-miterlimit="10" stroke-width="1.5" stroke-dasharray=""/></g><g transform="matrix(1,0,0,1,9.26171875,28.5)"><text fill="#000000" stroke="none" font-family="Open Sans" font-size="12pt" font-style="normal" font-weight="normal" text-decoration="normal" x="67.73828125" y="12" text-anchor="middle" dominant-baseline="alphabetic">Consultar medios </text><text fill="#000000" stroke="none" font-family="Open Sans" font-size="12pt" font-style="normal" font-weight="normal" text-decoration="normal" x="67.73828125" y="27" text-anchor="middle" dominant-baseline="alphabetic">        de pago          </text><text fill="#000000" stroke="none" font-family="Open Sans" font-size="12pt" font-style="normal" font-weight="normal" text-decoration="normal" x="67.73828125" y="42" text-anchor="middle" dominant-baseline="alphabetic">      disponibles      </text></g></g><g id="_2A42A67D-861D-42C8-9A89-863432A90FFF" bpmn2nodeid="_2A42A67D-861D-42C8-9A89-863432A90FFF" transform="matrix(1,0,0,1,340,74)"><g><path fill="none" stroke="none"/></g><g transform="matrix(1,0,0,1,0,0)"><path fill="#ffffff" stroke="none" id="_2A42A67D-861D-42C8-9A89-863432A90FFF?shapeType=BACKGROUND" paint-order="stroke fill markers" d=" M 2 0 L 152 0 L 152 0 A 2 2 0 0 1 154 2 L 154 100 L 154 100 A 2 2 0 0 1 152 102 L 2 102 L 2 102 A 2 2 0 0 1 0 100 L 0 2 L 0 2.0000000000000004 A 2 2 0 0 1 1.9999999999999996 0 Z"/></g><g transform="matrix(1,0,0,1,0,0)"><path fill="none" stroke="rgb(0,0,0)" id="_2A42A67D-861D-42C8-9A89-863432A90FFF?shapeType=BORDER&amp;renderType=STROKE" paint-order="fill stroke markers" d=" M 2 0 L 152 0 L 152 0 A 2 2 0 0 1 154 2 L 154 100 L 154 100 A 2 2 0 0 1 152 102 L 2 102 L 2 102 A 2 2 0 0 1 0 100 L 0 2 L 0 2.0000000000000004 A 2 2 0 0 1 1.9999999999999996 0 Z" stroke-miterlimit="10" stroke-width="1.5" stroke-dasharray=""/></g><g transform="matrix(1,0,0,1,12.234375,28.5)"><text fill="#000000" stroke="none" font-family="Open Sans" font-size="12pt" font-style="normal" font-weight="normal" text-decoration="normal" x="64.765625" y="12" text-anchor="middle" dominant-baseline="alphabetic">Informar medios </text><text fill="#000000" stroke="none" font-family="Open Sans" font-size="12pt" font-style="normal" font-weight="normal" text-decoration="normal" x="64.765625" y="27" text-anchor="middle" dominant-baseline="alphabetic">        de pago         </text><text fill="#000000" stroke="none" font-family="Open Sans" font-size="12pt" font-style="normal" font-weight="normal" text-decoration="normal" x="64.765625" y="42" text-anchor="middle" dominant-baseline="alphabetic">     disponibles      </text></g></g><g id="_946E7383-3538-44F2-8CD4-9C3B5D142E44" bpmn2nodeid="_946E7383-3538-44F2-8CD4-9C3B5D142E44" transform="matrix(1,0,0,1,591,17.5)"><g><path fill="none" stroke="none"/></g><g transform="matrix(1,0,0,1,0,0)"><path fill="#ffffff" stroke="black" id="_946E7383-3538-44F2-8CD4-9C3B5D142E44?shapeType=BACKGROUND" paint-order="fill stroke markers" d=" M 2 0 L 151 0 L 151 0 A 2 2 0 0 1 153 2 L 153 99 L 153 99 A 2 2 0 0 1 151 101 L 2 101 L 2 101 A 2 2 0 0 1 0 99 L 0 2 L 0 2.0000000000000004 A 2 2 0 0 1 1.9999999999999996 0 Z" stroke-miterlimit="10" stroke-dasharray=""/></g><g transform="matrix(1,0,0,1,0,0)"><path fill="none" stroke="rgb(57,63,68)" id="_946E7383-3538-44F2-8CD4-9C3B5D142E44?shapeType=BORDER&amp;renderType=STROKE" paint-order="fill stroke markers" d=" M 2 0 L 151 0 L 151 0 A 2 2 0 0 1 153 2 L 153 99 L 153 99 A 2 2 0 0 1 151 101 L 2 101 L 2 101 A 2 2 0 0 1 0 99 L 0 2 L 0 2.0000000000000004 A 2 2 0 0 1 1.9999999999999996 0 Z" stroke-miterlimit="10" stroke-width="5" stroke-dasharray=""/></g><g transform="matrix(1,0,0,1,1,10)"><g transform="matrix(1,0,0,1,0,0)"><g transform="matrix(1,0,0,1,63,66)"><path fill="none" stroke="#393f44" id="_946E7383-3538-44F2-8CD4-9C3B5D142E44_subProcessReusableNormalBoundingBox" paint-order="fill stroke markers" d=" M 0 0 L 25 0 L 25 25 L 0 25 L 0 0 Z Z" stroke-miterlimit="10" stroke-width="1.5" stroke-dasharray=""/></g><g transform="matrix(0.04,0,0,0.04,68.64,69.6)"><path fill="#000000" stroke="#000000" id="_946E7383-3538-44F2-8CD4-9C3B5D142E44_subProcessReusableNormalReusableIcon" paint-order="fill stroke markers" d=" M 0 0 M 352 184 L 352 232 C 352 238.7 349.7 244.3 345 249 C 340.3 253.7 334.7 256 328 256 L 224 256 L 224 360 C 224 366.7 221.7 372.3 217 377 C 212.3 381.7 206.7 384 200 384 L 152 384 C 145.3 384 139.7 381.7 135 377 C 130.3 372.3 128 366.7 128 360 L 128 256 L 24 256 C 17.3 256 11.7 253.7 7 249 C 2.3000000000000007 244.3 0 238.7 0 232 L 0 184 C 0 177.3 2.3 171.7 7 167 C 11.7 162.3 17.3 160 24 160 L 128 160 L 128 56 C 128 49.3 130.3 43.7 135 39 C 139.7 34.3 145.3 32 152 32 L 200 32 C 206.7 32 212.3 34.3 217 39 C 221.7 43.7 224 49.3 224 56 L 224 160 L 328 160 C 334.7 160 340.3 162.3 345 167 C 349.7 171.7 352 177.3 352 184 Z" stroke-miterlimit="10" stroke-dasharray=""/></g></g></g><g transform="matrix(1,0,0,1,12.82,10)"><g transform="matrix(1,0,0,1,0,0)"><g transform="matrix(1,0,0,1,63,66)"><path fill="none" stroke="none"/></g><g transform="matrix(0.04,0,0,0.04,68.64,69.6)"><path fill="none" stroke="none"/></g><g transform="matrix(0.04,0,0,0.04,40.32,71.04)"><path fill="none" stroke="none"/></g><g transform="matrix(0.04,0,0,0.04,39.36,72)"><path fill="none" stroke="none"/></g></g></g><g transform="matrix(1,0,0,1,8.7109375,35.5)"><text fill="#000000" stroke="none" font-family="Open Sans" font-size="12pt" font-style="normal" font-weight="normal" text-decoration="normal" x="67.7890625" y="12" text-anchor="middle" dominant-baseline="alphabetic">Cobro con Tarjeta </text><text fill="#000000" stroke="none" font-family="Open Sans" font-size="12pt" font-style="normal" font-weight="normal" text-decoration="normal" x="67.7890625" y="27" text-anchor="middle" dominant-baseline="alphabetic">       de Crédito       </text></g></g><g id="_ECEBE4FF-3BBD-4528-85EF-40DD1F1EBC79" bpmn2nodeid="_ECEBE4FF-3BBD-4528-85EF-40DD1F1EBC79" transform="matrix(1,0,0,1,807,76)"><g><path fill="none" stroke="none"/></g><g transform="matrix(1,0,0,1,0,0)"><path fill="#ffffff" stroke="none" id="_ECEBE4FF-3BBD-4528-85EF-40DD1F1EBC79?shapeType=BACKGROUND" paint-order="stroke fill markers" d=" M 2 0 L 152 0 L 152 0 A 2 2 0 0 1 154 2 L 154 100 L 154 100 A 2 2 0 0 1 152 102 L 2 102 L 2 102 A 2 2 0 0 1 0 100 L 0 2 L 0 2.0000000000000004 A 2 2 0 0 1 1.9999999999999996 0 Z"/></g><g transform="matrix(1,0,0,1,0,0)"><path fill="none" stroke="rgb(0,0,0)" id="_ECEBE4FF-3BBD-4528-85EF-40DD1F1EBC79?shapeType=BORDER&amp;renderType=STROKE" paint-order="fill stroke markers" d=" M 2 0 L 152 0 L 152 0 A 2 2 0 0 1 154 2 L 154 100 L 154 100 A 2 2 0 0 1 152 102 L 2 102 L 2 102 A 2 2 0 0 1 0 100 L 0 2 L 0 2.0000000000000004 A 2 2 0 0 1 1.9999999999999996 0 Z" stroke-miterlimit="10" stroke-width="1.5" stroke-dasharray=""/></g><g transform="matrix(1,0,0,1,15.44140625,43.5)"><text fill="#000000" stroke="none" font-family="Open Sans" font-size="12pt" font-style="normal" font-weight="normal" text-decoration="normal" x="61.55859375" y="12" text-anchor="middle" dominant-baseline="alphabetic">Facturar compra</text></g></g><g id="_0B1C5A06-7F18-4D58-AA52-EAD37C2D2235" bpmn2nodeid="_0B1C5A06-7F18-4D58-AA52-EAD37C2D2235" transform="matrix(1,0,0,1,1002,76)"><g><path fill="none" stroke="none"/></g><g transform="matrix(1,0,0,1,0,0)"><path fill="#ffffff" stroke="none" id="_0B1C5A06-7F18-4D58-AA52-EAD37C2D2235?shapeType=BACKGROUND" paint-order="stroke fill markers" d=" M 2 0 L 152 0 L 152 0 A 2 2 0 0 1 154 2 L 154 100 L 154 100 A 2 2 0 0 1 152 102 L 2 102 L 2 102 A 2 2 0 0 1 0 100 L 0 2 L 0 2.0000000000000004 A 2 2 0 0 1 1.9999999999999996 0 Z"/></g><g transform="matrix(1,0,0,1,0,0)"><path fill="none" stroke="rgb(0,0,0)" id="_0B1C5A06-7F18-4D58-AA52-EAD37C2D2235?shapeType=BORDER&amp;renderType=STROKE" paint-order="fill stroke markers" d=" M 2 0 L 152 0 L 152 0 A 2 2 0 0 1 154 2 L 154 100 L 154 100 A 2 2 0 0 1 152 102 L 2 102 L 2 102 A 2 2 0 0 1 0 100 L 0 2 L 0 2.0000000000000004 A 2 2 0 0 1 1.9999999999999996 0 Z" stroke-miterlimit="10" stroke-width="1.5" stroke-dasharray=""/></g><g transform="matrix(1,0,0,1,14.7109375,36)"><text fill="#000000" stroke="none" font-family="Open Sans" font-size="12pt" font-style="normal" font-weight="normal" text-decoration="normal" x="62.2890625" y="12" text-anchor="middle" dominant-baseline="alphabetic">Entregar factura </text><text fill="#000000" stroke="none" font-family="Open Sans" font-size="12pt" font-style="normal" font-weight="normal" text-decoration="normal" x="62.2890625" y="27" text-anchor="middle" dominant-baseline="alphabetic">        sellada         </text></g></g></g><g transform="matrix(1,0,0,1,103,4)"><g transform="matrix(1,0,0,1,1281,248)"><path fill="#0088CE" stroke="#FFFFFF" paint-order="fill stroke markers" d=" M 5 0 A 5 5 0 1 0 4.999997500000209 0.0049999991666683785 Z" fill-opacity="0.8" stroke-miterlimit="10" stroke-width="2" stroke-dasharray=""/></g></g><g transform="matrix(1,0,0,1,133,101)"/><g transform="matrix(1,0,0,1,239,78)"/><g transform="matrix(1,0,0,1,443,78)"/><g transform="matrix(1,0,0,1,694,21.5)"/><g transform="matrix(1,0,0,1,910,80)"/><g transform="matrix(1,0,0,1,1105,80)"/><g id="_02509CDF-E736-426E-9845-DE5C2EEF47FE" bpmn2nodeid="_02509CDF-E736-426E-9845-DE5C2EEF47FE" transform="matrix(1,0,0,1,103,254)"><g><path fill="none" stroke="none"/></g><g transform="matrix(1,0,0,1,0,0)"><path fill="#f2f2f2" stroke="black" id="_02509CDF-E736-426E-9845-DE5C2EEF47FE?shapeType=BACKGROUND" paint-order="fill stroke markers" d=" M 0 0 L 1281 0 L 1281 243 L 0 243 L 0 0 Z Z" stroke-miterlimit="10" stroke-dasharray=""/></g><g transform="matrix(1,0,0,1,0,0)"><path fill="none" stroke="#000000" id="_02509CDF-E736-426E-9845-DE5C2EEF47FE?shapeType=BORDER&amp;renderType=STROKE" paint-order="fill stroke markers" d=" M 0 0 L 1281 0 L 1281 243 L 0 243 L 0 0 Z Z" stroke-miterlimit="10" stroke-width="0.5" stroke-dasharray=""/></g><g transform="matrix(-1.8369701987210297e-16,-1,1,-1.8369701987210297e-16,0,147.3046875)"><text fill="#000000" stroke="none" font-family="Open Sans" font-size="12pt" font-style="normal" font-weight="normal" text-decoration="normal" x="25.8046875" y="12" text-anchor="middle" dominant-baseline="alphabetic">Cliente</text></g><g id="_7A3E2479-1C2F-4B71-ACCC-A8D52E62B17D" bpmn2nodeid="_7A3E2479-1C2F-4B71-ACCC-A8D52E62B17D" transform="matrix(1,0,0,1,507,86)"><g><path fill="none" stroke="none"/></g><g transform="matrix(0.125,0,0,0.125,0,0)"><g transform="matrix(1,0,0,1,0,0)"><path fill="#fef4ea" stroke="black" id="_7A3E2479-1C2F-4B71-ACCC-A8D52E62B17D?shapeType=BACKGROUND" paint-order="fill stroke markers" d=" M 0 0 M 224.4 4.3 C 216.4 4.3 208.4 7.3 202.3 13.399999999999999 L 13.5 202.2 C 1.3000000000000007 214.39999999999998 1.3000000000000007 234.2 13.5 246.39999999999998 L 202.2 435.09999999999997 C 208.29999999999998 441.2 216.39999999999998 444.2 224.29999999999998 444.2 C 232.2 444.2 240.29999999999998 441.2 246.39999999999998 435.09999999999997 L 435.09999999999997 246.39999999999998 C 447.29999999999995 234.2 447.29999999999995 214.39999999999998 435.09999999999997 202.2 L 246.5 13.4 C 240.4 7.3 232.4 4.3 224.4 4.3 L 224.4 4.3 Z" stroke-miterlimit="10" stroke-dasharray=""/></g><g><g transform="matrix(1,0,0,1,0,0)"><g transform="matrix(1,0,0,1,0,0)"><path fill="#ec7a08" stroke="black" id="_7A3E2479-1C2F-4B71-ACCC-A8D52E62B17D?shapeType=BORDER&amp;renderType=FILL" paint-order="fill stroke markers" d=" M 0 0 M 20.8 212.7 L 213.3 20.2 C 219.60000000000002 13.899999999999999 229.70000000000002 13.899999999999999 235.9 20.2 L 428.4 212.7 C 434.7 219 434.7 229.1 428.4 235.29999999999998 L 235.9 427.8 C 229.6 434.1 219.5 434.1 213.3 427.8 L 20.8 235.3 C 14.5 229.1 14.5 218.9 20.8 212.7 L 20.8 212.7 Z M 0 0 M 0 224 C 0 232.1 3.1 240.3 9.3 246.5 L 201.5 438.7 C 213.9 451.09999999999997 234.1 451.09999999999997 246.5 438.7 L 438.7 246.5 C 444.9 240.3 448 232.1 448 224 C 448 215.9 444.9 207.7 438.7 201.5 L 246.5 9.3 C 234.1 -3.0999999999999996 213.9 -3.0999999999999996 201.5 9.3 L 9.3 201.5 C 3.1 207.7 0 215.9 0 224 L 0 224 Z" stroke-miterlimit="10" stroke-dasharray=""/></g></g></g><g><g transform="matrix(1,0,0,1,0,0)"><g transform="matrix(1,0,0,1,0,0)"><path fill="#ec7a08" stroke="black" id="_7A3E2479-1C2F-4B71-ACCC-A8D52E62B17D_exclusive" paint-order="fill stroke markers" d=" M 0 0 M 298.2 269.2 C 298.2 272.59999999999997 297.09999999999997 275.3 294.7 277.7 L 277.7 294.7 C 275.3 297.09999999999997 272.59999999999997 298.2 269.2 298.2 C 265.8 298.2 263.09999999999997 297.09999999999997 260.7 294.7 L 224 258 L 187.2 294.8 C 184.79999999999998 297.2 182.1 298.3 178.7 298.3 C 175.29999999999998 298.3 172.6 297.2 170.2 294.8 L 153.2 277.8 C 150.79999999999998 275.40000000000003 149.7 272.7 149.7 269.3 C 149.7 265.90000000000003 150.79999999999998 263.2 153.2 260.8 L 190 224 L 153.2 187.2 C 150.79999999999998 184.79999999999998 149.7 182 149.7 178.7 C 149.7 175.29999999999998 150.79999999999998 172.5 153.2 170.2 L 170.2 153.2 C 172.6 150.79999999999998 175.29999999999998 149.7 178.7 149.7 C 182.1 149.7 184.79999999999998 150.79999999999998 187.2 153.2 L 224 190 L 260.8 153.2 C 263.2 150.79999999999998 265.90000000000003 149.7 269.3 149.7 C 272.7 149.7 275.40000000000003 150.79999999999998 277.8 153.2 L 294.8 170.2 C 297.2 172.5 298.3 175.29999999999998 298.3 178.7 C 298.3 182 297.2 184.79999999999998 294.8 187.2 L 258 224 L 294.8 260.8 C 297.1 263.1 298.2 265.9 298.2 269.2 Z" stroke-miterlimit="10" stroke-dasharray=""/></g></g></g></g><g transform="matrix(1,0,0,1,-30.9296875,61)"><text fill="#000000" stroke="none" font-family="Open Sans" font-size="12pt" font-style="normal" font-weight="normal" text-decoration="normal" x="58.9296875" y="12" text-anchor="middle" dominant-baseline="alphabetic">Medio de Pago?</text></g></g><g id="_BD950A5A-145C-4ACD-94B4-788622D67A4F" bpmn2nodeid="_BD950A5A-145C-4ACD-94B4-788622D67A4F" transform="matrix(1,0,0,1,1002,63)"><g><path fill="none" stroke="none"/></g><g transform="matrix(1,0,0,1,0,0)"><path fill="#ffffff" stroke="none" id="_BD950A5A-145C-4ACD-94B4-788622D67A4F?shapeType=BACKGROUND" paint-order="stroke fill markers" d=" M 2 0 L 152 0 L 152 0 A 2 2 0 0 1 154 2 L 154 100 L 154 100 A 2 2 0 0 1 152 102 L 2 102 L 2 102 A 2 2 0 0 1 0 100 L 0 2 L 0 2.0000000000000004 A 2 2 0 0 1 1.9999999999999996 0 Z"/></g><g transform="matrix(1,0,0,1,0,0)"><path fill="none" stroke="rgb(0,0,0)" id="_BD950A5A-145C-4ACD-94B4-788622D67A4F?shapeType=BORDER&amp;renderType=STROKE" paint-order="fill stroke markers" d=" M 2 0 L 152 0 L 152 0 A 2 2 0 0 1 154 2 L 154 100 L 154 100 A 2 2 0 0 1 152 102 L 2 102 L 2 102 A 2 2 0 0 1 0 100 L 0 2 L 0 2.0000000000000004 A 2 2 0 0 1 1.9999999999999996 0 Z" stroke-miterlimit="10" stroke-width="1.5" stroke-dasharray=""/></g><g transform="matrix(1,0,0,1,23.20703125,43.5)"><text fill="#000000" stroke="none" font-family="Open Sans" font-size="12pt" font-style="normal" font-weight="normal" text-decoration="normal" x="53.79296875" y="12" text-anchor="middle" dominant-baseline="alphabetic">Recibir factura</text></g></g></g><g transform="matrix(1,0,0,1,103,254)"/><g transform="matrix(1,0,0,1,610,340)"/><g transform="matrix(1,0,0,1,1105,317)"/><g id="_8038EC95-DD4C-4329-BAED-0850D3612E6E" bpmn2nodeid="_8038EC95-DD4C-4329-BAED-0850D3612E6E" transform="matrix(1,0,0,1,694,138.5)"><g><path fill="none" stroke="none"/></g><g transform="matrix(1,0,0,1,0,0)"><path fill="#ffffff" stroke="black" id="_8038EC95-DD4C-4329-BAED-0850D3612E6E?shapeType=BACKGROUND" paint-order="fill stroke markers" d=" M 2 0 L 151 0 L 151 0 A 2 2 0 0 1 153 2 L 153 99 L 153 99 A 2 2 0 0 1 151 101 L 2 101 L 2 101 A 2 2 0 0 1 0 99 L 0 2 L 0 2.0000000000000004 A 2 2 0 0 1 1.9999999999999996 0 Z" stroke-miterlimit="10" stroke-dasharray=""/></g><g transform="matrix(1,0,0,1,0,0)"><path fill="none" stroke="rgb(57,63,68)" id="_8038EC95-DD4C-4329-BAED-0850D3612E6E?shapeType=BORDER&amp;renderType=STROKE" paint-order="fill stroke markers" d=" M 2 0 L 151 0 L 151 0 A 2 2 0 0 1 153 2 L 153 99 L 153 99 A 2 2 0 0 1 151 101 L 2 101 L 2 101 A 2 2 0 0 1 0 99 L 0 2 L 0 2.0000000000000004 A 2 2 0 0 1 1.9999999999999996 0 Z" stroke-miterlimit="10" stroke-width="5" stroke-dasharray=""/></g><g transform="matrix(1,0,0,1,1,10)"><g transform="matrix(1,0,0,1,0,0)"><g transform="matrix(1,0,0,1,63,66)"><path fill="none" stroke="#393f44" id="_8038EC95-DD4C-4329-BAED-0850D3612E6E_subProcessReusableNormalBoundingBox" paint-order="fill stroke markers" d=" M 0 0 L 25 0 L 25 25 L 0 25 L 0 0 Z Z" stroke-miterlimit="10" stroke-width="1.5" stroke-dasharray=""/></g><g transform="matrix(0.04,0,0,0.04,68.64,69.6)"><path fill="#000000" stroke="#000000" id="_8038EC95-DD4C-4329-BAED-0850D3612E6E_subProcessReusableNormalReusableIcon" paint-order="fill stroke markers" d=" M 0 0 M 352 184 L 352 232 C 352 238.7 349.7 244.3 345 249 C 340.3 253.7 334.7 256 328 256 L 224 256 L 224 360 C 224 366.7 221.7 372.3 217 377 C 212.3 381.7 206.7 384 200 384 L 152 384 C 145.3 384 139.7 381.7 135 377 C 130.3 372.3 128 366.7 128 360 L 128 256 L 24 256 C 17.3 256 11.7 253.7 7 249 C 2.3000000000000007 244.3 0 238.7 0 232 L 0 184 C 0 177.3 2.3 171.7 7 167 C 11.7 162.3 17.3 160 24 160 L 128 160 L 128 56 C 128 49.3 130.3 43.7 135 39 C 139.7 34.3 145.3 32 152 32 L 200 32 C 206.7 32 212.3 34.3 217 39 C 221.7 43.7 224 49.3 224 56 L 224 160 L 328 160 C 334.7 160 340.3 162.3 345 167 C 349.7 171.7 352 177.3 352 184 Z" stroke-miterlimit="10" stroke-dasharray=""/></g></g></g><g transform="matrix(1,0,0,1,12.82,10)"><g transform="matrix(1,0,0,1,0,0)"><g transform="matrix(1,0,0,1,63,66)"><path fill="none" stroke="none"/></g><g transform="matrix(0.04,0,0,0.04,68.64,69.6)"><path fill="none" stroke="none"/></g><g transform="matrix(0.04,0,0,0.04,40.32,71.04)"><path fill="none" stroke="none"/></g><g transform="matrix(0.04,0,0,0.04,39.36,72)"><path fill="none" stroke="none"/></g></g></g><g transform="matrix(1,0,0,1,11.04296875,43)"><text fill="#000000" stroke="none" font-family="Open Sans" font-size="12pt" font-style="normal" font-weight="normal" text-decoration="normal" x="65.45703125" y="12" text-anchor="middle" dominant-baseline="alphabetic">Cobro en efectivo</text></g></g><g transform="matrix(1,0,0,1,694,138.5)"/><g id="_06953C0E-5CF6-4412-8995-317CBF55B696" bpmn2nodeid="_06953C0E-5CF6-4412-8995-317CBF55B696" transform="matrix(1,0,0,1,1308,340)"><g><path fill="none" stroke="none"/></g><g transform="matrix(0.125,0,0,0.125,0,0)"><g transform="matrix(1,0,0,1,0,0)"><path fill="#fce7e7" stroke="black" id="_06953C0E-5CF6-4412-8995-317CBF55B696?shapeType=BACKGROUND" paint-order="fill stroke markers" d=" M 0 0 M 444 224 C 444 263.9 434.2 300.8 414.4 334.5 C 394.7 368.2 368 394.9 334.4 414.5 C 300.79999999999995 434.1 263.9 444 224 444 C 184.10000000000002 444 147.2 434.2 113.5 414.4 C 79.8 394.7 53.1 368 33.5 334.4 C 13.899999999999999 300.79999999999995 4 263.9 4 224 C 4 184.10000000000002 13.8 147.2 33.6 113.5 C 53.400000000000006 79.80000000000001 80.1 53.1 113.6 33.5 C 147.1 13.899999999999999 184.1 4 224 4 C 263.9 4 300.8 13.8 334.5 33.6 C 368.2 53.400000000000006 394.9 80.1 414.5 113.6 C 434.1 147.1 444 184.1 444 224 Z" stroke-miterlimit="10" stroke-dasharray=""/></g><g><g transform="matrix(1,0,0,1,0,0)"><g transform="matrix(1,0,0,1,0,0)"><path fill="#a30000" stroke="black" id="_06953C0E-5CF6-4412-8995-317CBF55B696?shapeType=BORDER&amp;renderType=FILL" paint-order="fill stroke markers" d=" M 0 0 M 224 0 C 100.3 0 0 100.3 0 224 C 0 347.7 100.3 448 224 448 C 347.7 448 448 347.7 448 224 C 448 100.30000000000001 347.7 0 224 0 Z M 0 0 M 224 400 C 126.8 400 48 321.2 48 224 C 48 126.80000000000001 126.8 48 224 48 C 321.2 48 400 126.8 400 224 C 400 321.2 321.2 400 224 400 Z" stroke-miterlimit="10" stroke-dasharray=""/></g></g></g></g><g transform="matrix(1,0,0,1,28,61)"/></g><g transform="matrix(1,0,0,1,1308,340)"/><g id="_EB2A9F1C-9BC2-41FB-926B-882E0012DB92" bpmn2nodeid="_EB2A9F1C-9BC2-41FB-926B-882E0012DB92"><g><path fill="none" stroke="#000000" paint-order="fill stroke markers" d=" M 189 129 L 224 129" stroke-miterlimit="10" stroke-dasharray=""/></g><g transform="matrix(1,0,0,1,189,129)"/><g transform="matrix(6.123233995736766e-17,1,-1,6.123233995736766e-17,239,124)"><path fill="#000000" stroke="#000000" paint-order="fill stroke markers" d=" M 10 15 L 0 15 L 5 0 Z" stroke-miterlimit="10" stroke-dasharray=""/></g><g transform="matrix(1,0,0,1,189,119)"/></g><g id="_97E85F02-E8CF-47B4-9767-A78D3417595D" bpmn2nodeid="_97E85F02-E8CF-47B4-9767-A78D3417595D"><g><path fill="none" stroke="#000000" paint-order="fill stroke markers" d=" M 393 129 L 428 129" stroke-miterlimit="10" stroke-dasharray=""/></g><g transform="matrix(1,0,0,1,393,129)"/><g transform="matrix(6.123233995736766e-17,1,-1,6.123233995736766e-17,443,124)"><path fill="#000000" stroke="#000000" paint-order="fill stroke markers" d=" M 10 15 L 0 15 L 5 0 Z" stroke-miterlimit="10" stroke-dasharray=""/></g><g transform="matrix(1,0,0,1,393,119)"/></g><g id="_2261FD80-CEE1-4694-8F08-4084E6058F9A" bpmn2nodeid="_2261FD80-CEE1-4694-8F08-4084E6058F9A"><g><path fill="none" stroke="#000000" paint-order="fill stroke markers" d=" M 520.0000092451367 180 L 520.0000433252483 368 L 595 368" stroke-miterlimit="10" stroke-dasharray=""/></g><g transform="matrix(1,0,0,1,520.0000092451367,180)"/><g transform="matrix(6.123233995736766e-17,1,-1,6.123233995736766e-17,610,363)"><path fill="#000000" stroke="#000000" paint-order="fill stroke markers" d=" M 10 15 L 0 15 L 5 0 Z" stroke-miterlimit="10" stroke-dasharray=""/></g><g transform="matrix(1,0,0,1,530.0000092451365,273.99999818722813)"/></g><g id="_D84FE59E-2D78-4E9E-898A-588808B2E396" bpmn2nodeid="_D84FE59E-2D78-4E9E-898A-588808B2E396"><g><path fill="none" stroke="#000000" paint-order="fill stroke markers" d=" M 638 340 L 638 72 L 679 72" stroke-miterlimit="10" stroke-dasharray=""/></g><g transform="matrix(1,0,0,1,638,340)"/><g transform="matrix(6.123233995736766e-17,1,-1,6.123233995736766e-17,694,67)"><path fill="#000000" stroke="#000000" paint-order="fill stroke markers" d=" M 10 15 L 0 15 L 5 0 Z" stroke-miterlimit="10" stroke-dasharray=""/></g><g transform="matrix(1,0,0,1,648,206)"/></g><g id="_0D14193F-5CC4-4063-840A-C90C9284D273" bpmn2nodeid="_0D14193F-5CC4-4063-840A-C90C9284D273"><g><path fill="none" stroke="#000000" paint-order="fill stroke markers" d=" M 847 104.35483870967741 L 896.1848079093521 125.15701553155397" stroke-miterlimit="10" stroke-dasharray=""/></g><g transform="matrix(1,0,0,1,847,104.35483870967741)"/><g transform="matrix(-0.389532297896401,0.9210128060431894,-0.9210128060431894,-0.389532297896401,911.947661489482,126.39493596978406)"><path fill="#000000" stroke="#000000" paint-order="fill stroke markers" d=" M 10 15 L 0 15 L 5 0 Z" stroke-miterlimit="10" stroke-dasharray=""/></g><g transform="matrix(1,0,0,1,850.895322978964,108.46729129440682)"/></g><g id="_EC9A330D-8018-4A02-988B-78C617B1DCCB" bpmn2nodeid="_EC9A330D-8018-4A02-988B-78C617B1DCCB"><g><path fill="none" stroke="#000000" paint-order="fill stroke markers" d=" M 1064 131 L 1090 131" stroke-miterlimit="10" stroke-dasharray=""/></g><g transform="matrix(1,0,0,1,1064,131)"/><g transform="matrix(6.123233995736766e-17,1,-1,6.123233995736766e-17,1105,126)"><path fill="#000000" stroke="#000000" paint-order="fill stroke markers" d=" M 10 15 L 0 15 L 5 0 Z" stroke-miterlimit="10" stroke-dasharray=""/></g><g transform="matrix(1,0,0,1,1064,121)"/></g><g id="_E820B37A-00C7-4695-835E-7B500750680F" bpmn2nodeid="_E820B37A-00C7-4695-835E-7B500750680F"><g><path fill="none" stroke="#000000" paint-order="fill stroke markers" d=" M 1182 182 L 1182 302" stroke-miterlimit="10" stroke-dasharray=""/></g><g transform="matrix(1,0,0,1,1182,182)"/><g transform="matrix(-1,1.2246467991473532e-16,-1.2246467991473532e-16,-1,1187,317)"><path fill="#000000" stroke="#000000" paint-order="fill stroke markers" d=" M 10 15 L 0 15 L 5 0 Z" stroke-miterlimit="10" stroke-dasharray=""/></g><g transform="matrix(1,0,0,1,1192,249.5)"/></g><g id="_483EBAF9-E36B-4F68-8309-E0DBBBB38DA5" bpmn2nodeid="_483EBAF9-E36B-4F68-8309-E0DBBBB38DA5"><g><path fill="none" stroke="#000000" paint-order="fill stroke markers" d=" M 1259 368 L 1293 368" stroke-miterlimit="10" stroke-dasharray=""/></g><g transform="matrix(1,0,0,1,1259,368)"/><g transform="matrix(6.123233995736766e-17,1,-1,6.123233995736766e-17,1308,363)"><path fill="#000000" stroke="#000000" paint-order="fill stroke markers" d=" M 10 15 L 0 15 L 5 0 Z" stroke-miterlimit="10" stroke-dasharray=""/></g><g transform="matrix(1,0,0,1,1259,358)"/></g><g id="_3BA549F5-1606-4B74-A376-28F2518540F2" bpmn2nodeid="_3BA549F5-1606-4B74-A376-28F2518540F2"><g><path fill="none" stroke="#000000" paint-order="fill stroke markers" d=" M 666 368 L 666 189 L 679 189" stroke-miterlimit="10" stroke-dasharray=""/></g><g transform="matrix(1,0,0,1,666,368)"/><g transform="matrix(6.123233995736766e-17,1,-1,6.123233995736766e-17,694,184)"><path fill="#000000" stroke="#000000" paint-order="fill stroke markers" d=" M 10 15 L 0 15 L 5 0 Z" stroke-miterlimit="10" stroke-dasharray=""/></g><g transform="matrix(1,0,0,1,676,278.5)"/></g><g id="_CB67C574-10E7-417C-90B0-A7387A519DA3" bpmn2nodeid="_CB67C574-10E7-417C-90B0-A7387A519DA3"><g><path fill="none" stroke="#000000" paint-order="fill stroke markers" d=" M 847 157.19354838709677 L 896.1494439581181 136.75865412494014" stroke-miterlimit="10" stroke-dasharray=""/></g><g transform="matrix(1,0,0,1,847,157.19354838709677)"/><g transform="matrix(0.3839102749960087,0.9233704027921238,-0.9233704027921238,0.3839102749960087,908.0804486250199,126.38314798603938)"><path fill="#000000" stroke="#000000" paint-order="fill stroke markers" d=" M 10 15 L 0 15 L 5 0 Z" stroke-miterlimit="10" stroke-dasharray=""/></g><g transform="matrix(1,0,0,1,850.83910274996,134.86307016562714)"/></g></g></g></svg>