<svg version="1.1" xmlns="http://www.w3.org/2000/svg" xmlns:xlink="http://www.w3.org/1999/xlink" width="1405" height="694" viewBox="0 0 1405 694"><defs/><g transform="matrix(1,0,0,1,0,0)"><g><g><g><path fill="none" stroke="#d3d3d3" paint-order="fill stroke markers" d=" M 0 0 L 1200 0" stroke-miterlimit="10" stroke-opacity="0.8" stroke-dasharray="5"/></g><g><path fill="none" stroke="#d3d3d3" paint-order="fill stroke markers" d=" M 0 0 L 0 800" stroke-miterlimit="10" stroke-opacity="0.8" stroke-dasharray="5"/></g></g><g id="_57BE3489-ADAE-4832-9DF4-CC009D133E70" bpmn2nodeid="_57BE3489-ADAE-4832-9DF4-CC009D133E70" transform="matrix(1,0,0,1,101,97)"><g><path fill="none" stroke="none"/></g><g transform="matrix(1,0,0,1,0,0)"><path fill="#f2f2f2" stroke="black" id="_57BE3489-ADAE-4832-9DF4-CC009D133E70?shapeType=BACKGROUND" paint-order="fill stroke markers" d=" M 0 0 L 1254 0 L 1254 329 L 0 329 L 0 0 Z Z" stroke-miterlimit="10" stroke-dasharray=""/></g><g transform="matrix(1,0,0,1,0,0)"><path fill="none" stroke="#000000" id="_57BE3489-ADAE-4832-9DF4-CC009D133E70?shapeType=BORDER&amp;renderType=STROKE" paint-order="fill stroke markers" d=" M 0 0 L 1254 0 L 1254 329 L 0 329 L 0 0 Z Z" stroke-miterlimit="10" stroke-width="0.5" stroke-dasharray=""/></g><g transform="matrix(-1.8369701987210297e-16,-1,1,-1.8369701987210297e-16,0,251.01171875)"><text fill="#000000" stroke="none" font-family="Open Sans" font-size="12pt" font-style="normal" font-weight="normal" text-decoration="normal" x="86.51171875" y="12" text-anchor="middle" dominant-baseline="alphabetic">Encargado de Compras</text></g><g id="_935D8D76-C96C-44BC-9CCC-0F7A47BB1190" bpmn2nodeid="_935D8D76-C96C-44BC-9CCC-0F7A47BB1190" transform="matrix(1,0,0,1,55,188)"><g><path fill="none" stroke="none"/></g><g transform="matrix(0.125,0,0,0.125,0,0)"><g transform="matrix(1,0,0,1,0,0)"><path fill="#e8fae6" stroke="black" id="_935D8D76-C96C-44BC-9CCC-0F7A47BB1190?shapeType=BACKGROUND" paint-order="fill stroke markers" d=" M 0 0 M 444 224 C 444 263.9 434.2 300.8 414.4 334.5 C 394.7 368.2 368 394.9 334.4 414.5 C 300.79999999999995 434.1 263.9 444 224 444 C 184.10000000000002 444 147.2 434.2 113.5 414.4 C 79.8 394.7 53.1 368 33.5 334.4 C 13.899999999999999 300.79999999999995 4 263.9 4 224 C 4 184.10000000000002 13.8 147.2 33.6 113.5 C 53.400000000000006 79.80000000000001 80.1 53.1 113.6 33.5 C 147.1 13.899999999999999 184.1 4 224 4 C 263.9 4 300.8 13.8 334.5 33.6 C 368.2 53.400000000000006 394.9 80.1 414.5 113.6 C 434.1 147.1 444 184.1 444 224 Z" stroke-miterlimit="10" stroke-dasharray=""/></g><g><g transform="matrix(1,0,0,1,0,0)"><g transform="matrix(1,0,0,1,0,0)"><path fill="#4aa241" stroke="black" id="_935D8D76-C96C-44BC-9CCC-0F7A47BB1190?shapeType=BORDER&amp;renderType=FILL" paint-order="fill stroke markers" d=" M 0 0 M 224 0 C 100.3 0 0 100.3 0 224 C 0 347.7 100.3 448 224 448 C 347.7 448 448 347.7 448 224 C 448 100.30000000000001 347.7 0 224 0 Z M 0 0 M 224 432 C 109.1 432 16 338.9 16 224 C 16 109.10000000000002 109.1 16 224 16 C 338.9 16 432 109.1 432 224 C 432 338.9 338.9 432 224 432 Z" stroke-miterlimit="10" stroke-dasharray=""/></g></g></g></g><g transform="matrix(1,0,0,1,28,61)"/></g><g id="_986FE0D0-8658-4A47-827A-EB9A7C9A74D1" bpmn2nodeid="_986FE0D0-8658-4A47-827A-EB9A7C9A74D1" transform="matrix(1,0,0,1,191,165)"><g><path fill="none" stroke="none"/></g><g transform="matrix(1,0,0,1,0,0)"><path fill="#ffffff" stroke="none" id="_986FE0D0-8658-4A47-827A-EB9A7C9A74D1?shapeType=BACKGROUND" paint-order="stroke fill markers" d=" M 2 0 L 152 0 L 152 0 A 2 2 0 0 1 154 2 L 154 100 L 154 100 A 2 2 0 0 1 152 102 L 2 102 L 2 102 A 2 2 0 0 1 0 100 L 0 2 L 0 2.0000000000000004 A 2 2 0 0 1 1.9999999999999996 0 Z"/></g><g transform="matrix(1,0,0,1,0,0)"><path fill="none" stroke="rgb(0,0,0)" id="_986FE0D0-8658-4A47-827A-EB9A7C9A74D1?shapeType=BORDER&amp;renderType=STROKE" paint-order="fill stroke markers" d=" M 2 0 L 152 0 L 152 0 A 2 2 0 0 1 154 2 L 154 100 L 154 100 A 2 2 0 0 1 152 102 L 2 102 L 2 102 A 2 2 0 0 1 0 100 L 0 2 L 0 2.0000000000000004 A 2 2 0 0 1 1.9999999999999996 0 Z" stroke-miterlimit="10" stroke-width="1.5" stroke-dasharray=""/></g><g transform="matrix(1,0,0,1,32.43359375,36)"><text fill="#000000" stroke="none" font-family="Open Sans" font-size="12pt" font-style="normal" font-weight="normal" text-decoration="normal" x="44.56640625" y="12" text-anchor="middle" dominant-baseline="alphabetic">Seleccionar </text><text fill="#000000" stroke="none" font-family="Open Sans" font-size="12pt" font-style="normal" font-weight="normal" text-decoration="normal" x="44.56640625" y="27" text-anchor="middle" dominant-baseline="alphabetic"> Proveedor  </text></g></g><g id="_BF8216C8-AD7E-44C0-84AD-053B964CA8E1" bpmn2nodeid="_BF8216C8-AD7E-44C0-84AD-053B964CA8E1" transform="matrix(1,0,0,1,425,165)"><g><path fill="none" stroke="none"/></g><g transform="matrix(1,0,0,1,0,0)"><path fill="#ffffff" stroke="none" id="_BF8216C8-AD7E-44C0-84AD-053B964CA8E1?shapeType=BACKGROUND" paint-order="stroke fill markers" d=" M 2 0 L 152 0 L 152 0 A 2 2 0 0 1 154 2 L 154 100 L 154 100 A 2 2 0 0 1 152 102 L 2 102 L 2 102 A 2 2 0 0 1 0 100 L 0 2 L 0 2.0000000000000004 A 2 2 0 0 1 1.9999999999999996 0 Z"/></g><g transform="matrix(1,0,0,1,0,0)"><path fill="none" stroke="rgb(0,0,0)" id="_BF8216C8-AD7E-44C0-84AD-053B964CA8E1?shapeType=BORDER&amp;renderType=STROKE" paint-order="fill stroke markers" d=" M 2 0 L 152 0 L 152 0 A 2 2 0 0 1 154 2 L 154 100 L 154 100 A 2 2 0 0 1 152 102 L 2 102 L 2 102 A 2 2 0 0 1 0 100 L 0 2 L 0 2.0000000000000004 A 2 2 0 0 1 1.9999999999999996 0 Z" stroke-miterlimit="10" stroke-width="1.5" stroke-dasharray=""/></g><g transform="matrix(1,0,0,1,10.87890625,36)"><text fill="#000000" stroke="none" font-family="Open Sans" font-size="12pt" font-style="normal" font-weight="normal" text-decoration="normal" x="66.12109375" y="12" text-anchor="middle" dominant-baseline="alphabetic">Realizar pedido a </text><text fill="#000000" stroke="none" font-family="Open Sans" font-size="12pt" font-style="normal" font-weight="normal" text-decoration="normal" x="66.12109375" y="27" text-anchor="middle" dominant-baseline="alphabetic">      proveedor       </text></g></g><g id="_DD717018-F583-44E8-BF38-B559587BC522" bpmn2nodeid="_DD717018-F583-44E8-BF38-B559587BC522" transform="matrix(1,0,0,1,659,165)"><g><path fill="none" stroke="none"/></g><g transform="matrix(1,0,0,1,0,0)"><path fill="#ffffff" stroke="none" id="_DD717018-F583-44E8-BF38-B559587BC522?shapeType=BACKGROUND" paint-order="stroke fill markers" d=" M 2 0 L 152 0 L 152 0 A 2 2 0 0 1 154 2 L 154 100 L 154 100 A 2 2 0 0 1 152 102 L 2 102 L 2 102 A 2 2 0 0 1 0 100 L 0 2 L 0 2.0000000000000004 A 2 2 0 0 1 1.9999999999999996 0 Z"/></g><g transform="matrix(1,0,0,1,0,0)"><path fill="none" stroke="rgb(0,0,0)" id="_DD717018-F583-44E8-BF38-B559587BC522?shapeType=BORDER&amp;renderType=STROKE" paint-order="fill stroke markers" d=" M 2 0 L 152 0 L 152 0 A 2 2 0 0 1 154 2 L 154 100 L 154 100 A 2 2 0 0 1 152 102 L 2 102 L 2 102 A 2 2 0 0 1 0 100 L 0 2 L 0 2.0000000000000004 A 2 2 0 0 1 1.9999999999999996 0 Z" stroke-miterlimit="10" stroke-width="1.5" stroke-dasharray=""/></g><g transform="matrix(1,0,0,1,8.3671875,43.5)"><text fill="#000000" stroke="none" font-family="Open Sans" font-size="12pt" font-style="normal" font-weight="normal" text-decoration="normal" x="68.6328125" y="12" text-anchor="middle" dominant-baseline="alphabetic">Pagar a proveedor</text></g></g></g><g transform="matrix(1,0,0,1,101,97)"/><g transform="matrix(1,0,0,1,156,285)"/><g transform="matrix(1,0,0,1,292,262)"/><g transform="matrix(1,0,0,1,526,262)"/><g transform="matrix(1,0,0,1,760,262)"/><g id="_7878E5FF-E3D8-4C32-B400-00693C8D29C3" bpmn2nodeid="_7878E5FF-E3D8-4C32-B400-00693C8D29C3" transform="matrix(1,0,0,1,101,426)"><g><path fill="none" stroke="none"/></g><g transform="matrix(1,0,0,1,0,0)"><path fill="#f2f2f2" stroke="black" id="_7878E5FF-E3D8-4C32-B400-00693C8D29C3?shapeType=BACKGROUND" paint-order="fill stroke markers" d=" M 0 0 L 1254 0 L 1254 218 L 0 218 L 0 0 Z Z" stroke-miterlimit="10" stroke-dasharray=""/></g><g transform="matrix(1,0,0,1,0,0)"><path fill="none" stroke="rgb(0,0,0)" id="_7878E5FF-E3D8-4C32-B400-00693C8D29C3?shapeType=BORDER&amp;renderType=STROKE" paint-order="fill stroke markers" d=" M 0 0 L 1254 0 L 1254 218 L 0 218 L 0 0 Z Z" stroke-miterlimit="10" stroke-width="0.5" stroke-dasharray=""/></g><g transform="matrix(-1.8369701987210297e-16,-1,1,-1.8369701987210297e-16,0,195.46875)"><text fill="#000000" stroke="none" font-family="Open Sans" font-size="12pt" font-style="normal" font-weight="normal" text-decoration="normal" x="86.46875" y="12" text-anchor="middle" dominant-baseline="alphabetic">Encargado de Depósito</text></g><g id="_829C3D23-57A7-42D8-9DC4-E1391D914114" bpmn2nodeid="_829C3D23-57A7-42D8-9DC4-E1391D914114" transform="matrix(1,0,0,1,659,58)"><g><path fill="none" stroke="none"/></g><g transform="matrix(1,0,0,1,0,0)"><path fill="#ffffff" stroke="none" id="_829C3D23-57A7-42D8-9DC4-E1391D914114?shapeType=BACKGROUND" paint-order="stroke fill markers" d=" M 2 0 L 152 0 L 152 0 A 2 2 0 0 1 154 2 L 154 100 L 154 100 A 2 2 0 0 1 152 102 L 2 102 L 2 102 A 2 2 0 0 1 0 100 L 0 2 L 0 2.0000000000000004 A 2 2 0 0 1 1.9999999999999996 0 Z"/></g><g transform="matrix(1,0,0,1,0,0)"><path fill="none" stroke="rgb(0,0,0)" id="_829C3D23-57A7-42D8-9DC4-E1391D914114?shapeType=BORDER&amp;renderType=STROKE" paint-order="fill stroke markers" d=" M 2 0 L 152 0 L 152 0 A 2 2 0 0 1 154 2 L 154 100 L 154 100 A 2 2 0 0 1 152 102 L 2 102 L 2 102 A 2 2 0 0 1 0 100 L 0 2 L 0 2.0000000000000004 A 2 2 0 0 1 1.9999999999999996 0 Z" stroke-miterlimit="10" stroke-width="1.5" stroke-dasharray=""/></g><g transform="matrix(1,0,0,1,4.96484375,36)"><text fill="#000000" stroke="none" font-family="Open Sans" font-size="12pt" font-style="normal" font-weight="normal" text-decoration="normal" x="72.03515625" y="12" text-anchor="middle" dominant-baseline="alphabetic">Recibir mercadería </text><text fill="#000000" stroke="none" font-family="Open Sans" font-size="12pt" font-style="normal" font-weight="normal" text-decoration="normal" x="72.03515625" y="27" text-anchor="middle" dominant-baseline="alphabetic">     del proveedor     </text></g></g><g id="_00EC1A34-3615-4EDA-9B48-5628F3775D36" bpmn2nodeid="_00EC1A34-3615-4EDA-9B48-5628F3775D36" transform="matrix(1,0,0,1,1127,81)"><g><path fill="none" stroke="none"/></g><g transform="matrix(0.125,0,0,0.125,0,0)"><g transform="matrix(1,0,0,1,0,0)"><path fill="#fce7e7" stroke="black" id="_00EC1A34-3615-4EDA-9B48-5628F3775D36?shapeType=BACKGROUND" paint-order="fill stroke markers" d=" M 0 0 M 444 224 C 444 263.9 434.2 300.8 414.4 334.5 C 394.7 368.2 368 394.9 334.4 414.5 C 300.79999999999995 434.1 263.9 444 224 444 C 184.10000000000002 444 147.2 434.2 113.5 414.4 C 79.8 394.7 53.1 368 33.5 334.4 C 13.899999999999999 300.79999999999995 4 263.9 4 224 C 4 184.10000000000002 13.8 147.2 33.6 113.5 C 53.400000000000006 79.80000000000001 80.1 53.1 113.6 33.5 C 147.1 13.899999999999999 184.1 4 224 4 C 263.9 4 300.8 13.8 334.5 33.6 C 368.2 53.400000000000006 394.9 80.1 414.5 113.6 C 434.1 147.1 444 184.1 444 224 Z" stroke-miterlimit="10" stroke-dasharray=""/></g><g><g transform="matrix(1,0,0,1,0,0)"><g transform="matrix(1,0,0,1,0,0)"><path fill="#a30000" stroke="black" id="_00EC1A34-3615-4EDA-9B48-5628F3775D36?shapeType=BORDER&amp;renderType=FILL" paint-order="fill stroke markers" d=" M 0 0 M 224 0 C 100.3 0 0 100.3 0 224 C 0 347.7 100.3 448 224 448 C 347.7 448 448 347.7 448 224 C 448 100.30000000000001 347.7 0 224 0 Z M 0 0 M 224 400 C 126.8 400 48 321.2 48 224 C 48 126.80000000000001 126.8 48 224 48 C 321.2 48 400 126.8 400 224 C 400 321.2 321.2 400 224 400 Z" stroke-miterlimit="10" stroke-dasharray=""/></g></g></g></g><g transform="matrix(1,0,0,1,28,61)"/></g><g id="_D4687A94-5CBD-4777-90F1-AF47851C1DC8" bpmn2nodeid="_D4687A94-5CBD-4777-90F1-AF47851C1DC8" transform="matrix(1,0,0,1,893,58)"><g><path fill="none" stroke="none"/></g><g transform="matrix(1,0,0,1,0,0)"><path fill="#ffffff" stroke="none" id="_D4687A94-5CBD-4777-90F1-AF47851C1DC8?shapeType=BACKGROUND" paint-order="stroke fill markers" d=" M 2 0 L 152 0 L 152 0 A 2 2 0 0 1 154 2 L 154 100 L 154 100 A 2 2 0 0 1 152 102 L 2 102 L 2 102 A 2 2 0 0 1 0 100 L 0 2 L 0 2.0000000000000004 A 2 2 0 0 1 1.9999999999999996 0 Z"/></g><g transform="matrix(1,0,0,1,0,0)"><path fill="none" stroke="rgb(0,0,0)" id="_D4687A94-5CBD-4777-90F1-AF47851C1DC8?shapeType=BORDER&amp;renderType=STROKE" paint-order="fill stroke markers" d=" M 2 0 L 152 0 L 152 0 A 2 2 0 0 1 154 2 L 154 100 L 154 100 A 2 2 0 0 1 152 102 L 2 102 L 2 102 A 2 2 0 0 1 0 100 L 0 2 L 0 2.0000000000000004 A 2 2 0 0 1 1.9999999999999996 0 Z" stroke-miterlimit="10" stroke-width="1.5" stroke-dasharray=""/></g><g transform="matrix(1,0,0,1,31.7265625,21)"><text fill="#000000" stroke="none" font-family="Open Sans" font-size="12pt" font-style="normal" font-weight="normal" text-decoration="normal" x="45.2734375" y="12" text-anchor="middle" dominant-baseline="alphabetic">  Controlar   </text><text fill="#000000" stroke="none" font-family="Open Sans" font-size="12pt" font-style="normal" font-weight="normal" text-decoration="normal" x="45.2734375" y="27" text-anchor="middle" dominant-baseline="alphabetic">mercadería </text><text fill="#000000" stroke="none" font-family="Open Sans" font-size="12pt" font-style="normal" font-weight="normal" text-decoration="normal" x="45.2734375" y="42" text-anchor="middle" dominant-baseline="alphabetic">recibida del </text><text fill="#000000" stroke="none" font-family="Open Sans" font-size="12pt" font-style="normal" font-weight="normal" text-decoration="normal" x="45.2734375" y="57" text-anchor="middle" dominant-baseline="alphabetic"> proveedor  </text></g></g></g><g id="_A0FFE14C-9741-441E-8EF2-FB46D1ED5AA6" bpmn2nodeid="_A0FFE14C-9741-441E-8EF2-FB46D1ED5AA6" transform="matrix(1,0,0,1,339,120)"><g><path fill="none" stroke="none"/></g><g transform="matrix(0.1088409706437762,0,0,0.13071895424836602,0,0)"><g transform="matrix(1,0,0,1,0,0)"><path fill="#ffffff" stroke="#000000" id="_A0FFE14C-9741-441E-8EF2-FB46D1ED5AA6?shapeType=BORDER&amp;renderType=STROKE" paint-order="fill stroke markers" d=" M 0 0 M 404.814 0 L 60.736 0 L 60.736 612 L 551.263 612 L 551.263 153 Z M 0 0 M 404.814 0 L 551.263 153 L 404.78839000000005 151.8588 Z" stroke-miterlimit="10" stroke-width="7" stroke-dasharray="0"/></g><g transform="matrix(1,0,0,1,0,0)"><path fill="#ffffff" stroke="none" id="_A0FFE14C-9741-441E-8EF2-FB46D1ED5AA6_dataObject__nkN9" paint-order="stroke fill markers" d=" M 0 0 M 407.78 5.025422 L 408.62229 150.15254 L 545.9156 151 Z"/></g></g><g transform="matrix(1,0,0,1,-16.72265625,85)"><text fill="#000000" stroke="none" font-family="Open Sans" font-size="12pt" font-style="normal" font-weight="normal" text-decoration="normal" x="46.72265625" y="12" text-anchor="middle" dominant-baseline="alphabetic">Proveedores</text></g></g><g transform="matrix(1,0,0,1,339,120)"/><g id="_9AD44830-1E75-4741-9A2D-92F26AE9E89D" bpmn2nodeid="_9AD44830-1E75-4741-9A2D-92F26AE9E89D"><g><path fill="none" stroke="#000000" paint-order="fill stroke markers" d=" M 212 313 L 277 313" stroke-miterlimit="10" stroke-dasharray=""/></g><g transform="matrix(1,0,0,1,212,313)"/><g transform="matrix(6.123233995736766e-17,1,-1,6.123233995736766e-17,292,308)"><path fill="#000000" stroke="#000000" paint-order="fill stroke markers" d=" M 10 15 L 0 15 L 5 0 Z" stroke-miterlimit="10" stroke-dasharray=""/></g><g transform="matrix(1,0,0,1,212,303)"/></g><g id="_1D173102-FB99-41C3-9FD7-D4F18AB1EEFC" bpmn2nodeid="_1D173102-FB99-41C3-9FD7-D4F18AB1EEFC"><g><path fill="none" stroke="#000000" paint-order="fill stroke markers" d=" M 446 313 L 511 313" stroke-miterlimit="10" stroke-dasharray=""/></g><g transform="matrix(1,0,0,1,446,313)"/><g transform="matrix(6.123233995736766e-17,1,-1,6.123233995736766e-17,526,308)"><path fill="#000000" stroke="#000000" paint-order="fill stroke markers" d=" M 10 15 L 0 15 L 5 0 Z" stroke-miterlimit="10" stroke-dasharray=""/></g><g transform="matrix(1,0,0,1,446,303)"/></g><g id="_4E50E313-2FA9-4BD0-BE6A-A2BAC8367B18" bpmn2nodeid="_4E50E313-2FA9-4BD0-BE6A-A2BAC8367B18"><g><path fill="none" stroke="#000000" paint-order="fill stroke markers" d=" M 680 313 L 745 313" stroke-miterlimit="10" stroke-dasharray=""/></g><g transform="matrix(1,0,0,1,680,313)"/><g transform="matrix(6.123233995736766e-17,1,-1,6.123233995736766e-17,760,308)"><path fill="#000000" stroke="#000000" paint-order="fill stroke markers" d=" M 10 15 L 0 15 L 5 0 Z" stroke-miterlimit="10" stroke-dasharray=""/></g><g transform="matrix(1,0,0,1,680,303)"/></g><g id="_A6199B4A-7AE8-456E-BC87-3ACA9B402CE4" bpmn2nodeid="_A6199B4A-7AE8-456E-BC87-3ACA9B402CE4"><g><path fill="none" stroke="#000000" paint-order="fill stroke markers" d=" M 837 364 L 837 469" stroke-miterlimit="10" stroke-dasharray=""/></g><g transform="matrix(1,0,0,1,837,364)"/><g transform="matrix(-1,1.2246467991473532e-16,-1.2246467991473532e-16,-1,842,484)"><path fill="#000000" stroke="#000000" paint-order="fill stroke markers" d=" M 10 15 L 0 15 L 5 0 Z" stroke-miterlimit="10" stroke-dasharray=""/></g><g transform="matrix(1,0,0,1,847,424)"/></g><g transform="matrix(1,0,0,1,101,426)"/><g transform="matrix(1,0,0,1,760,484)"/><g transform="matrix(1,0,0,1,1228,507)"/><g transform="matrix(1,0,0,1,994,484)"/><g id="_D2D336F2-C46E-4499-910E-60DECBD7E444" bpmn2nodeid="_D2D336F2-C46E-4499-910E-60DECBD7E444"><g><path fill="none" stroke="#000000" paint-order="fill stroke markers" d=" M 914 535 L 979 535" stroke-miterlimit="10" stroke-dasharray=""/></g><g transform="matrix(1,0,0,1,914,535)"/><g transform="matrix(6.123233995736766e-17,1,-1,6.123233995736766e-17,994,530)"><path fill="#000000" stroke="#000000" paint-order="fill stroke markers" d=" M 10 15 L 0 15 L 5 0 Z" stroke-miterlimit="10" stroke-dasharray=""/></g><g transform="matrix(1,0,0,1,914,525)"/></g><g id="_1A499B3D-F0E5-4ED1-AFBF-EBE41E95DE26" bpmn2nodeid="_1A499B3D-F0E5-4ED1-AFBF-EBE41E95DE26"><g><path fill="none" stroke="#000000" paint-order="fill stroke markers" d=" M 1148 535 L 1213 535" stroke-miterlimit="10" stroke-dasharray=""/></g><g transform="matrix(1,0,0,1,1148,535)"/><g transform="matrix(6.123233995736766e-17,1,-1,6.123233995736766e-17,1228,530)"><path fill="#000000" stroke="#000000" paint-order="fill stroke markers" d=" M 10 15 L 0 15 L 5 0 Z" stroke-miterlimit="10" stroke-dasharray=""/></g><g transform="matrix(1,0,0,1,1148,525)"/></g></g></g></svg>