<svg version="1.1" xmlns="http://www.w3.org/2000/svg" xmlns:xlink="http://www.w3.org/1999/xlink" width="1319" height="662" viewBox="0 0 1319 662"><defs/><g transform="matrix(1,0,0,1,0,0)"><g><g><g><path fill="none" stroke="#d3d3d3" paint-order="fill stroke markers" d=" M 0 0 L 1200 0" stroke-miterlimit="10" stroke-opacity="0.8" stroke-dasharray="5"/></g><g><path fill="none" stroke="#d3d3d3" paint-order="fill stroke markers" d=" M 0 0 L 0 800" stroke-miterlimit="10" stroke-opacity="0.8" stroke-dasharray="5"/></g></g><g id="_5E505873-68C1-4E02-9020-1D44AB29E47D" bpmn2nodeid="_5E505873-68C1-4E02-9020-1D44AB29E47D" transform="matrix(1,0,0,1,70,254)"><g><path fill="none" stroke="none"/></g><g transform="matrix(1,0,0,1,0,0)"><path fill="#f2f2f2" stroke="black" id="_5E505873-68C1-4E02-9020-1D44AB29E47D?shapeType=BACKGROUND" paint-order="fill stroke markers" d=" M 0 0 L 1199 0 L 1199 358 L 0 358 L 0 0 Z Z" stroke-miterlimit="10" stroke-dasharray=""/></g><g transform="matrix(1,0,0,1,0,0)"><path fill="none" stroke="#000000" id="_5E505873-68C1-4E02-9020-1D44AB29E47D?shapeType=BORDER&amp;renderType=STROKE" paint-order="fill stroke markers" d=" M 0 0 L 1199 0 L 1199 358 L 0 358 L 0 0 Z Z" stroke-miterlimit="10" stroke-width="0.5" stroke-dasharray=""/></g><g transform="matrix(-1.8369701987210297e-16,-1,1,-1.8369701987210297e-16,0,215.390625)"><text fill="#000000" stroke="none" font-family="Open Sans" font-size="12pt" font-style="normal" font-weight="normal" text-decoration="normal" x="36.390625" y="12" text-anchor="middle" dominant-baseline="alphabetic">Vendedor</text></g><g id="_4D05B9AB-64AC-461A-B5D9-06898D967690" bpmn2nodeid="_4D05B9AB-64AC-461A-B5D9-06898D967690" transform="matrix(1,0,0,1,169,74)"><g><path fill="none" stroke="none"/></g><g transform="matrix(1,0,0,1,0,0)"><path fill="#ffffff" stroke="none" id="_4D05B9AB-64AC-461A-B5D9-06898D967690?shapeType=BACKGROUND" paint-order="stroke fill markers" d=" M 2 0 L 152 0 L 152 0 A 2 2 0 0 1 154 2 L 154 100 L 154 100 A 2 2 0 0 1 152 102 L 2 102 L 2 102 A 2 2 0 0 1 0 100 L 0 2 L 0 2.0000000000000004 A 2 2 0 0 1 1.9999999999999996 0 Z"/></g><g transform="matrix(1,0,0,1,0,0)"><path fill="none" stroke="rgb(0,0,0)" id="_4D05B9AB-64AC-461A-B5D9-06898D967690?shapeType=BORDER&amp;renderType=STROKE" paint-order="fill stroke markers" d=" M 2 0 L 152 0 L 152 0 A 2 2 0 0 1 154 2 L 154 100 L 154 100 A 2 2 0 0 1 152 102 L 2 102 L 2 102 A 2 2 0 0 1 0 100 L 0 2 L 0 2.0000000000000004 A 2 2 0 0 1 1.9999999999999996 0 Z" stroke-miterlimit="10" stroke-width="1.5" stroke-dasharray=""/></g><g transform="matrix(1,0,0,1,7.51171875,36)"><text fill="#000000" stroke="none" font-family="Open Sans" font-size="12pt" font-style="normal" font-weight="normal" text-decoration="normal" x="69.48828125" y="12" text-anchor="middle" dominant-baseline="alphabetic">Atender consultas </text><text fill="#000000" stroke="none" font-family="Open Sans" font-size="12pt" font-style="normal" font-weight="normal" text-decoration="normal" x="69.48828125" y="27" text-anchor="middle" dominant-baseline="alphabetic">       de clientes       </text></g></g><g id="_B1FAD25A-929D-4D81-9AD1-35D6E3B994D3" bpmn2nodeid="_B1FAD25A-929D-4D81-9AD1-35D6E3B994D3" transform="matrix(1,0,0,1,378,74)"><g><path fill="none" stroke="none"/></g><g transform="matrix(1,0,0,1,0,0)"><path fill="#ffffff" stroke="none" id="_B1FAD25A-929D-4D81-9AD1-35D6E3B994D3?shapeType=BACKGROUND" paint-order="stroke fill markers" d=" M 2 0 L 152 0 L 152 0 A 2 2 0 0 1 154 2 L 154 100 L 154 100 A 2 2 0 0 1 152 102 L 2 102 L 2 102 A 2 2 0 0 1 0 100 L 0 2 L 0 2.0000000000000004 A 2 2 0 0 1 1.9999999999999996 0 Z"/></g><g transform="matrix(1,0,0,1,0,0)"><path fill="none" stroke="rgb(0,0,0)" id="_B1FAD25A-929D-4D81-9AD1-35D6E3B994D3?shapeType=BORDER&amp;renderType=STROKE" paint-order="fill stroke markers" d=" M 2 0 L 152 0 L 152 0 A 2 2 0 0 1 154 2 L 154 100 L 154 100 A 2 2 0 0 1 152 102 L 2 102 L 2 102 A 2 2 0 0 1 0 100 L 0 2 L 0 2.0000000000000004 A 2 2 0 0 1 1.9999999999999996 0 Z" stroke-miterlimit="10" stroke-width="1.5" stroke-dasharray=""/></g><g transform="matrix(1,0,0,1,17.28515625,36)"><text fill="#000000" stroke="none" font-family="Open Sans" font-size="12pt" font-style="normal" font-weight="normal" text-decoration="normal" x="59.71484375" y="12" text-anchor="middle" dominant-baseline="alphabetic">Consultar stock </text><text fill="#000000" stroke="none" font-family="Open Sans" font-size="12pt" font-style="normal" font-weight="normal" text-decoration="normal" x="59.71484375" y="27" text-anchor="middle" dominant-baseline="alphabetic">     disponible     </text></g></g><g id="_43C30644-453B-4180-8A67-BBF5CE79C495" bpmn2nodeid="_43C30644-453B-4180-8A67-BBF5CE79C495" transform="matrix(1,0,0,1,592,74)"><g><path fill="none" stroke="none"/></g><g transform="matrix(1,0,0,1,0,0)"><path fill="#ffffff" stroke="none" id="_43C30644-453B-4180-8A67-BBF5CE79C495?shapeType=BACKGROUND" paint-order="stroke fill markers" d=" M 2 0 L 152 0 L 152 0 A 2 2 0 0 1 154 2 L 154 100 L 154 100 A 2 2 0 0 1 152 102 L 2 102 L 2 102 A 2 2 0 0 1 0 100 L 0 2 L 0 2.0000000000000004 A 2 2 0 0 1 1.9999999999999996 0 Z"/></g><g transform="matrix(1,0,0,1,0,0)"><path fill="none" stroke="rgb(0,0,0)" id="_43C30644-453B-4180-8A67-BBF5CE79C495?shapeType=BORDER&amp;renderType=STROKE" paint-order="fill stroke markers" d=" M 2 0 L 152 0 L 152 0 A 2 2 0 0 1 154 2 L 154 100 L 154 100 A 2 2 0 0 1 152 102 L 2 102 L 2 102 A 2 2 0 0 1 0 100 L 0 2 L 0 2.0000000000000004 A 2 2 0 0 1 1.9999999999999996 0 Z" stroke-miterlimit="10" stroke-width="1.5" stroke-dasharray=""/></g><g transform="matrix(1,0,0,1,9.7890625,36)"><text fill="#000000" stroke="none" font-family="Open Sans" font-size="12pt" font-style="normal" font-weight="normal" text-decoration="normal" x="67.2109375" y="12" text-anchor="middle" dominant-baseline="alphabetic">Consultar precios </text><text fill="#000000" stroke="none" font-family="Open Sans" font-size="12pt" font-style="normal" font-weight="normal" text-decoration="normal" x="67.2109375" y="27" text-anchor="middle" dominant-baseline="alphabetic">    de productos     </text></g></g><g id="_FE0568D9-FCC5-446D-9781-3E2505BDC8A5" bpmn2nodeid="_FE0568D9-FCC5-446D-9781-3E2505BDC8A5" transform="matrix(1,0,0,1,760,235)"><g><path fill="none" stroke="none"/></g><g transform="matrix(0.125,0,0,0.125,0,0)"><g transform="matrix(1,0,0,1,0,0)"><path fill="#fef4ea" stroke="black" id="_FE0568D9-FCC5-446D-9781-3E2505BDC8A5?shapeType=BACKGROUND" paint-order="fill stroke markers" d=" M 0 0 M 224.4 4.3 C 216.4 4.3 208.4 7.3 202.3 13.399999999999999 L 13.5 202.2 C 1.3000000000000007 214.39999999999998 1.3000000000000007 234.2 13.5 246.39999999999998 L 202.2 435.09999999999997 C 208.29999999999998 441.2 216.39999999999998 444.2 224.29999999999998 444.2 C 232.2 444.2 240.29999999999998 441.2 246.39999999999998 435.09999999999997 L 435.09999999999997 246.39999999999998 C 447.29999999999995 234.2 447.29999999999995 214.39999999999998 435.09999999999997 202.2 L 246.5 13.4 C 240.4 7.3 232.4 4.3 224.4 4.3 L 224.4 4.3 Z" stroke-miterlimit="10" stroke-dasharray=""/></g><g><g transform="matrix(1,0,0,1,0,0)"><g transform="matrix(1,0,0,1,0,0)"><path fill="rgb(236,122,8)" stroke="black" id="_FE0568D9-FCC5-446D-9781-3E2505BDC8A5?shapeType=BORDER&amp;renderType=FILL" paint-order="fill stroke markers" d=" M 0 0 M 20.8 212.7 L 213.3 20.2 C 219.60000000000002 13.899999999999999 229.70000000000002 13.899999999999999 235.9 20.2 L 428.4 212.7 C 434.7 219 434.7 229.1 428.4 235.29999999999998 L 235.9 427.8 C 229.6 434.1 219.5 434.1 213.3 427.8 L 20.8 235.3 C 14.5 229.1 14.5 218.9 20.8 212.7 L 20.8 212.7 Z M 0 0 M 0 224 C 0 232.1 3.1 240.3 9.3 246.5 L 201.5 438.7 C 213.9 451.09999999999997 234.1 451.09999999999997 246.5 438.7 L 438.7 246.5 C 444.9 240.3 448 232.1 448 224 C 448 215.9 444.9 207.7 438.7 201.5 L 246.5 9.3 C 234.1 -3.0999999999999996 213.9 -3.0999999999999996 201.5 9.3 L 9.3 201.5 C 3.1 207.7 0 215.9 0 224 L 0 224 Z" stroke-miterlimit="10" stroke-dasharray=""/></g></g></g><g><g transform="matrix(1,0,0,1,0,0)"><g transform="matrix(1,0,0,1,0,0)"><path fill="#ec7a08" stroke="black" id="_FE0568D9-FCC5-446D-9781-3E2505BDC8A5_exclusive" paint-order="fill stroke markers" d=" M 0 0 M 298.2 269.2 C 298.2 272.59999999999997 297.09999999999997 275.3 294.7 277.7 L 277.7 294.7 C 275.3 297.09999999999997 272.59999999999997 298.2 269.2 298.2 C 265.8 298.2 263.09999999999997 297.09999999999997 260.7 294.7 L 224 258 L 187.2 294.8 C 184.79999999999998 297.2 182.1 298.3 178.7 298.3 C 175.29999999999998 298.3 172.6 297.2 170.2 294.8 L 153.2 277.8 C 150.79999999999998 275.40000000000003 149.7 272.7 149.7 269.3 C 149.7 265.90000000000003 150.79999999999998 263.2 153.2 260.8 L 190 224 L 153.2 187.2 C 150.79999999999998 184.79999999999998 149.7 182 149.7 178.7 C 149.7 175.29999999999998 150.79999999999998 172.5 153.2 170.2 L 170.2 153.2 C 172.6 150.79999999999998 175.29999999999998 149.7 178.7 149.7 C 182.1 149.7 184.79999999999998 150.79999999999998 187.2 153.2 L 224 190 L 260.8 153.2 C 263.2 150.79999999999998 265.90000000000003 149.7 269.3 149.7 C 272.7 149.7 275.40000000000003 150.79999999999998 277.8 153.2 L 294.8 170.2 C 297.2 172.5 298.3 175.29999999999998 298.3 178.7 C 298.3 182 297.2 184.79999999999998 294.8 187.2 L 258 224 L 294.8 260.8 C 297.1 263.1 298.2 265.9 298.2 269.2 Z" stroke-miterlimit="10" stroke-dasharray=""/></g></g></g></g><g transform="matrix(1,0,0,1,-36.09765625,61)"><text fill="#000000" stroke="none" font-family="Open Sans" font-size="12pt" font-style="normal" font-weight="normal" text-decoration="normal" x="64.09765625" y="12" text-anchor="middle" dominant-baseline="alphabetic">Decide Comprar?</text></g></g><g id="_09966842-1AE9-40C4-9F79-35456D62FD45" bpmn2nodeid="_09966842-1AE9-40C4-9F79-35456D62FD45" transform="matrix(1,0,0,1,898,212)"><g><path fill="none" stroke="none"/></g><g transform="matrix(1,0,0,1,0,0)"><path fill="#ffffff" stroke="none" id="_09966842-1AE9-40C4-9F79-35456D62FD45?shapeType=BACKGROUND" paint-order="stroke fill markers" d=" M 2 0 L 152 0 L 152 0 A 2 2 0 0 1 154 2 L 154 100 L 154 100 A 2 2 0 0 1 152 102 L 2 102 L 2 102 A 2 2 0 0 1 0 100 L 0 2 L 0 2.0000000000000004 A 2 2 0 0 1 1.9999999999999996 0 Z"/></g><g transform="matrix(1,0,0,1,0,0)"><path fill="none" stroke="rgb(0,0,0)" id="_09966842-1AE9-40C4-9F79-35456D62FD45?shapeType=BORDER&amp;renderType=STROKE" paint-order="fill stroke markers" d=" M 2 0 L 152 0 L 152 0 A 2 2 0 0 1 154 2 L 154 100 L 154 100 A 2 2 0 0 1 152 102 L 2 102 L 2 102 A 2 2 0 0 1 0 100 L 0 2 L 0 2.0000000000000004 A 2 2 0 0 1 1.9999999999999996 0 Z" stroke-miterlimit="10" stroke-width="1.5" stroke-dasharray=""/></g><g transform="matrix(1,0,0,1,7.04296875,28.5)"><text fill="#000000" stroke="none" font-family="Open Sans" font-size="12pt" font-style="normal" font-weight="normal" text-decoration="normal" x="69.95703125" y="12" text-anchor="middle" dominant-baseline="alphabetic">    Confeccionar      </text><text fill="#000000" stroke="none" font-family="Open Sans" font-size="12pt" font-style="normal" font-weight="normal" text-decoration="normal" x="69.95703125" y="27" text-anchor="middle" dominant-baseline="alphabetic">factura del pedido </text><text fill="#000000" stroke="none" font-family="Open Sans" font-size="12pt" font-style="normal" font-weight="normal" text-decoration="normal" x="69.95703125" y="42" text-anchor="middle" dominant-baseline="alphabetic">       del cliente        </text></g></g><g id="_2EE49B40-0022-4CD2-A093-33CFCDF62510" bpmn2nodeid="_2EE49B40-0022-4CD2-A093-33CFCDF62510" transform="matrix(1,0,0,1,947,97)"><g><path fill="none" stroke="none"/></g><g transform="matrix(0.125,0,0,0.125,0,0)"><g transform="matrix(1,0,0,1,0,0)"><path fill="#fce7e7" stroke="black" id="_2EE49B40-0022-4CD2-A093-33CFCDF62510?shapeType=BACKGROUND" paint-order="fill stroke markers" d=" M 0 0 M 444 224 C 444 263.9 434.2 300.8 414.4 334.5 C 394.7 368.2 368 394.9 334.4 414.5 C 300.79999999999995 434.1 263.9 444 224 444 C 184.10000000000002 444 147.2 434.2 113.5 414.4 C 79.8 394.7 53.1 368 33.5 334.4 C 13.899999999999999 300.79999999999995 4 263.9 4 224 C 4 184.10000000000002 13.8 147.2 33.6 113.5 C 53.400000000000006 79.80000000000001 80.1 53.1 113.6 33.5 C 147.1 13.899999999999999 184.1 4 224 4 C 263.9 4 300.8 13.8 334.5 33.6 C 368.2 53.400000000000006 394.9 80.1 414.5 113.6 C 434.1 147.1 444 184.1 444 224 Z" stroke-miterlimit="10" stroke-dasharray=""/></g><g><g transform="matrix(1,0,0,1,0,0)"><g transform="matrix(1,0,0,1,0,0)"><path fill="#a30000" stroke="black" id="_2EE49B40-0022-4CD2-A093-33CFCDF62510?shapeType=BORDER&amp;renderType=FILL" paint-order="fill stroke markers" d=" M 0 0 M 224 0 C 100.3 0 0 100.3 0 224 C 0 347.7 100.3 448 224 448 C 347.7 448 448 347.7 448 224 C 448 100.30000000000001 347.7 0 224 0 Z M 0 0 M 224 400 C 126.8 400 48 321.2 48 224 C 48 126.80000000000001 126.8 48 224 48 C 321.2 48 400 126.8 400 224 C 400 321.2 321.2 400 224 400 Z" stroke-miterlimit="10" stroke-dasharray=""/></g></g></g></g><g transform="matrix(1,0,0,1,28,61)"/></g></g><g transform="matrix(1,0,0,1,70,254)"/><g transform="matrix(1,0,0,1,239,328)"/><g transform="matrix(1,0,0,1,448,328)"/><g transform="matrix(1,0,0,1,662,328)"/><g transform="matrix(1,0,0,1,968,466)"/><g transform="matrix(1,0,0,1,1017,351)"/><g id="_F1D3B6E1-90FE-4A24-932E-47467EE10DD5" bpmn2nodeid="_F1D3B6E1-90FE-4A24-932E-47467EE10DD5" transform="matrix(1,0,0,1,70,4)"><g><path fill="none" stroke="none"/></g><g transform="matrix(1,0,0,1,0,0)"><path fill="#f2f2f2" stroke="black" id="_F1D3B6E1-90FE-4A24-932E-47467EE10DD5?shapeType=BACKGROUND" paint-order="fill stroke markers" d=" M 0 0 L 1199 0 L 1199 251 L 0 251 L 0 0 Z Z" stroke-miterlimit="10" stroke-dasharray=""/></g><g transform="matrix(1,0,0,1,0,0)"><path fill="none" stroke="rgb(0,136,206)" id="_F1D3B6E1-90FE-4A24-932E-47467EE10DD5?shapeType=BORDER&amp;renderType=STROKE" paint-order="fill stroke markers" d=" M 0 0 L 1199 0 L 1199 251 L 0 251 L 0 0 Z Z" stroke-miterlimit="10" stroke-width="0.5" stroke-dasharray=""/></g><g transform="matrix(-1.8369701987210297e-16,-1,1,-1.8369701987210297e-16,0,151.3046875)"><text fill="#000000" stroke="none" font-family="Open Sans" font-size="12pt" font-style="normal" font-weight="normal" text-decoration="normal" x="25.8046875" y="12" text-anchor="middle" dominant-baseline="alphabetic">Cliente</text></g><g id="_2A82820F-DDF8-4EB0-A264-73C5C49C9C61" bpmn2nodeid="_2A82820F-DDF8-4EB0-A264-73C5C49C9C61" transform="matrix(1,0,0,1,169,74)"><g><path fill="none" stroke="none"/></g><g transform="matrix(1,0,0,1,0,0)"><path fill="#ffffff" stroke="none" id="_2A82820F-DDF8-4EB0-A264-73C5C49C9C61?shapeType=BACKGROUND" paint-order="stroke fill markers" d=" M 2 0 L 152 0 L 152 0 A 2 2 0 0 1 154 2 L 154 100 L 154 100 A 2 2 0 0 1 152 102 L 2 102 L 2 102 A 2 2 0 0 1 0 100 L 0 2 L 0 2.0000000000000004 A 2 2 0 0 1 1.9999999999999996 0 Z"/></g><g transform="matrix(1,0,0,1,0,0)"><path fill="none" stroke="rgb(0,0,0)" id="_2A82820F-DDF8-4EB0-A264-73C5C49C9C61?shapeType=BORDER&amp;renderType=STROKE" paint-order="fill stroke markers" d=" M 2 0 L 152 0 L 152 0 A 2 2 0 0 1 154 2 L 154 100 L 154 100 A 2 2 0 0 1 152 102 L 2 102 L 2 102 A 2 2 0 0 1 0 100 L 0 2 L 0 2.0000000000000004 A 2 2 0 0 1 1.9999999999999996 0 Z" stroke-miterlimit="10" stroke-width="1.5" stroke-dasharray=""/></g><g transform="matrix(1,0,0,1,11.8671875,36)"><text fill="#000000" stroke="none" font-family="Open Sans" font-size="12pt" font-style="normal" font-weight="normal" text-decoration="normal" x="65.1328125" y="12" text-anchor="middle" dominant-baseline="alphabetic">Consultar por un </text><text fill="#000000" stroke="none" font-family="Open Sans" font-size="12pt" font-style="normal" font-weight="normal" text-decoration="normal" x="65.1328125" y="27" text-anchor="middle" dominant-baseline="alphabetic">       producto        </text></g></g></g><g transform="matrix(1,0,0,1,70,4)"><g transform="matrix(1,0,0,1,1199,251)"><path fill="#0088CE" stroke="#FFFFFF" paint-order="fill stroke markers" d=" M 5 0 A 5 5 0 1 0 4.999997500000209 0.0049999991666683785 Z" fill-opacity="0.8" stroke-miterlimit="10" stroke-width="2" stroke-dasharray=""/></g></g><g id="_113E8456-4C62-46D3-BF06-7453B3CB0EDD" bpmn2nodeid="_113E8456-4C62-46D3-BF06-7453B3CB0EDD" transform="matrix(1,0,0,1,128,101)"><g><path fill="none" stroke="none"/></g><g transform="matrix(0.125,0,0,0.125,0,0)"><g transform="matrix(1,0,0,1,0,0)"><path fill="#e8fae6" stroke="black" id="_113E8456-4C62-46D3-BF06-7453B3CB0EDD?shapeType=BACKGROUND" paint-order="fill stroke markers" d=" M 0 0 M 444 224 C 444 263.9 434.2 300.8 414.4 334.5 C 394.7 368.2 368 394.9 334.4 414.5 C 300.79999999999995 434.1 263.9 444 224 444 C 184.10000000000002 444 147.2 434.2 113.5 414.4 C 79.8 394.7 53.1 368 33.5 334.4 C 13.899999999999999 300.79999999999995 4 263.9 4 224 C 4 184.10000000000002 13.8 147.2 33.6 113.5 C 53.400000000000006 79.80000000000001 80.1 53.1 113.6 33.5 C 147.1 13.899999999999999 184.1 4 224 4 C 263.9 4 300.8 13.8 334.5 33.6 C 368.2 53.400000000000006 394.9 80.1 414.5 113.6 C 434.1 147.1 444 184.1 444 224 Z" stroke-miterlimit="10" stroke-dasharray=""/></g><g><g transform="matrix(1,0,0,1,0,0)"><g transform="matrix(1,0,0,1,0,0)"><path fill="#4aa241" stroke="black" id="_113E8456-4C62-46D3-BF06-7453B3CB0EDD?shapeType=BORDER&amp;renderType=FILL" paint-order="fill stroke markers" d=" M 0 0 M 224 0 C 100.3 0 0 100.3 0 224 C 0 347.7 100.3 448 224 448 C 347.7 448 448 347.7 448 224 C 448 100.30000000000001 347.7 0 224 0 Z M 0 0 M 224 432 C 109.1 432 16 338.9 16 224 C 16 109.10000000000002 109.1 16 224 16 C 338.9 16 432 109.1 432 224 C 432 338.9 338.9 432 224 432 Z" stroke-miterlimit="10" stroke-dasharray=""/></g></g></g></g><g transform="matrix(1,0,0,1,28,61)"/></g><g transform="matrix(1,0,0,1,128,101)"/><g id="_401F91E4-125E-47DF-B318-8CCD65A13E22" bpmn2nodeid="_401F91E4-125E-47DF-B318-8CCD65A13E22"><g><path fill="none" stroke="#000000" paint-order="fill stroke markers" d=" M 393 379 L 433 379" stroke-miterlimit="10" stroke-dasharray=""/></g><g transform="matrix(1,0,0,1,393,379)"/><g transform="matrix(6.123233995736766e-17,1,-1,6.123233995736766e-17,448,374)"><path fill="#000000" stroke="#000000" paint-order="fill stroke markers" d=" M 10 15 L 0 15 L 5 0 Z" stroke-miterlimit="10" stroke-dasharray=""/></g><g transform="matrix(1,0,0,1,393,369)"/></g><g id="_042ADF3F-8443-4DE5-983B-1588942D5451" bpmn2nodeid="_042ADF3F-8443-4DE5-983B-1588942D5451"><g><path fill="none" stroke="#000000" paint-order="fill stroke markers" d=" M 602 379 L 647 379" stroke-miterlimit="10" stroke-dasharray=""/></g><g transform="matrix(1,0,0,1,602,379)"/><g transform="matrix(6.123233995736766e-17,1,-1,6.123233995736766e-17,662,374)"><path fill="#000000" stroke="#000000" paint-order="fill stroke markers" d=" M 10 15 L 0 15 L 5 0 Z" stroke-miterlimit="10" stroke-dasharray=""/></g><g transform="matrix(1,0,0,1,602,369)"/></g><g id="_3D5455A4-36AA-43CF-B01D-70A2FEC38625" bpmn2nodeid="_3D5455A4-36AA-43CF-B01D-70A2FEC38625"><g><path fill="none" stroke="#000000" paint-order="fill stroke markers" d=" M 739.0000348188923 430 L 739.0000942158265 517 L 815 517" stroke-miterlimit="10" stroke-dasharray=""/></g><g transform="matrix(1,0,0,1,739.0000348188923,430)"/><g transform="matrix(6.123233995736766e-17,1,-1,6.123233995736766e-17,830,512)"><path fill="#000000" stroke="#000000" paint-order="fill stroke markers" d=" M 10 15 L 0 15 L 5 0 Z" stroke-miterlimit="10" stroke-dasharray=""/></g><g transform="matrix(1,0,0,1,749.0000348188901,473.4999931727662)"/></g><g id="_6674144E-4B63-4032-A94B-B610E3FA0FBC" bpmn2nodeid="_6674144E-4B63-4032-A94B-B610E3FA0FBC"><g><path fill="none" stroke="#000000" paint-order="fill stroke markers" d=" M 886 517 L 953 517" stroke-miterlimit="10" stroke-dasharray=""/></g><g transform="matrix(1,0,0,1,886,517)"/><g transform="matrix(6.123233995736766e-17,1,-1,6.123233995736766e-17,968,512)"><path fill="#000000" stroke="#000000" paint-order="fill stroke markers" d=" M 10 15 L 0 15 L 5 0 Z" stroke-miterlimit="10" stroke-dasharray=""/></g><g transform="matrix(1,0,0,1,886,507)"/></g><g id="_C1827F68-AF67-4F5F-8BFC-1A337A44819D" bpmn2nodeid="_C1827F68-AF67-4F5F-8BFC-1A337A44819D"><g><path fill="none" stroke="#000000" paint-order="fill stroke markers" d=" M 1045 466 L 1045 422" stroke-miterlimit="10" stroke-dasharray=""/></g><g transform="matrix(1,0,0,1,1045,466)"/><g transform="matrix(1,0,0,1,1040,407)"><path fill="#000000" stroke="#000000" paint-order="fill stroke markers" d=" M 10 15 L 0 15 L 5 0 Z" stroke-miterlimit="10" stroke-dasharray=""/></g><g transform="matrix(1,0,0,1,1055,436.5)"/></g><g id="_912ED46C-F221-41D6-8D44-E26813196A92" bpmn2nodeid="_912ED46C-F221-41D6-8D44-E26813196A92"><g><path fill="none" stroke="#000000" paint-order="fill stroke markers" d=" M 184 129 L 224 129" stroke-miterlimit="10" stroke-dasharray=""/></g><g transform="matrix(1,0,0,1,184,129)"/><g transform="matrix(6.123233995736766e-17,1,-1,6.123233995736766e-17,239,124)"><path fill="#000000" stroke="#000000" paint-order="fill stroke markers" d=" M 10 15 L 0 15 L 5 0 Z" stroke-miterlimit="10" stroke-dasharray=""/></g><g transform="matrix(1,0,0,1,184,119)"/></g><g id="_B0FBC097-50C0-4747-9ADC-283BBB26D3AF" bpmn2nodeid="_B0FBC097-50C0-4747-9ADC-283BBB26D3AF"><g><path fill="none" stroke="#000000" paint-order="fill stroke markers" d=" M 316 180 L 316 313" stroke-miterlimit="10" stroke-dasharray=""/></g><g transform="matrix(1,0,0,1,316,180)"/><g transform="matrix(-1,1.2246467991473532e-16,-1.2246467991473532e-16,-1,321,328)"><path fill="#000000" stroke="#000000" paint-order="fill stroke markers" d=" M 10 15 L 0 15 L 5 0 Z" stroke-miterlimit="10" stroke-dasharray=""/></g><g transform="matrix(1,0,0,1,326,254)"/></g><g transform="matrix(1,0,0,1,239,78)"/><g transform="matrix(1,0,0,1,830,489)"/></g></g></svg>